<svg width="73" height="62" viewBox="0 0 73 62" fill="none" xmlns="http://www.w3.org/2000/svg">
<g clip-path="url(#clip0_200_1922)">
<path d="M0.806286 50.6293V41.6769H6.65705V43.197H2.62721V45.6964H6.26348V47.1923H2.62721V50.6293H0.806286Z" fill="#355C7D"/>
<path d="M11.8867 50.7498C11.1028 50.7498 10.3971 50.5699 9.77043 50.2091C9.14376 49.8484 8.64801 49.3262 8.28399 48.6409C7.91996 47.9556 7.73795 47.1289 7.73795 46.1591C7.73795 45.1894 7.91996 44.3555 8.28399 43.6686C8.64801 42.9817 9.14376 42.4578 9.77043 42.0971C10.3971 41.7364 11.1028 41.5564 11.8867 41.5564C12.6707 41.5564 13.3812 41.7364 14.0062 42.0971C14.6313 42.4578 15.1254 42.9817 15.4895 43.6686C15.8535 44.3555 16.0355 45.1854 16.0355 46.1591C16.0355 47.1329 15.8535 47.9556 15.4895 48.6409C15.1254 49.3262 14.6305 49.8484 14.0062 50.2091C13.3812 50.5699 12.6747 50.7498 11.8867 50.7498ZM11.8867 49.1213C12.3481 49.1213 12.7513 49.008 13.0954 48.7815C13.4394 48.5549 13.7077 48.2207 13.8985 47.778C14.0892 47.3353 14.185 46.7955 14.185 46.1583C14.185 45.5212 14.0892 44.9701 13.8985 44.5274C13.7077 44.0847 13.4394 43.7505 13.0954 43.524C12.7513 43.2974 12.3481 43.1841 11.8867 43.1841C11.4253 43.1841 11.027 43.2982 10.6805 43.5264C10.334 43.7545 10.0658 44.0904 9.87421 44.533C9.68341 44.9757 9.58762 45.5172 9.58762 46.1583C9.58762 46.7995 9.68341 47.3337 9.87421 47.7748C10.065 48.2159 10.334 48.5501 10.6805 48.7783C11.027 49.0064 11.4285 49.1205 11.8867 49.1205V49.1213Z" fill="#355C7D"/>
<path d="M17.4038 50.6293V41.6769H20.8724C21.5494 41.6769 22.1242 41.7974 22.5976 42.0377C23.0709 42.2779 23.4326 42.6169 23.6809 43.0532C23.9299 43.4902 24.0537 44.0028 24.0537 44.5917C24.0537 45.1806 23.9275 45.6884 23.6745 46.115C23.4214 46.5416 23.0558 46.8678 22.576 47.0943C22.0962 47.3209 21.5143 47.4342 20.8293 47.4342H18.4767V45.9503H20.5363C20.9107 45.9503 21.2173 45.8989 21.456 45.7968C21.6947 45.6948 21.8743 45.5421 21.9932 45.3405C22.113 45.138 22.1721 44.889 22.1721 44.5925C22.1721 44.296 22.1122 44.0325 21.9932 43.826C21.8735 43.6196 21.6939 43.4629 21.4528 43.3544C21.2117 43.246 20.9044 43.1922 20.5307 43.1922H19.2231V50.6309H17.4022L17.4038 50.6293ZM22.3533 50.6293L20.1859 46.5552H22.1617L24.3706 50.6293H22.3525H22.3533Z" fill="#355C7D"/>
<path d="M27.8161 50.6293L30.8552 41.6769H33.2437L36.3603 50.6293H34.3366L32.9092 46.3094C32.7384 45.7526 32.5636 45.1428 32.3871 44.48C32.2099 43.8172 32.0239 43.0933 31.8291 42.3076H32.2291C32.0383 43.0966 31.8595 43.8244 31.695 44.4921C31.5298 45.1589 31.3653 45.7647 31.2025 46.3094L29.8294 50.6293H27.8177H27.8161ZM29.7144 48.5509V47.1152H34.4611V48.5509H29.7144Z" fill="#355C7D"/>
<path d="M44.2403 50.7498C43.4524 50.7498 42.7467 50.5699 42.124 50.2091C41.5014 49.8484 41.0096 49.3262 40.6496 48.6409C40.2895 47.9556 40.1091 47.1289 40.1091 46.1591C40.1091 45.1894 40.2903 44.3555 40.6528 43.6686C41.0152 42.9817 41.5086 42.4578 42.1336 42.0971C42.7587 41.7364 43.4612 41.5564 44.2411 41.5564C44.7465 41.5564 45.2175 41.6279 45.6533 41.7701C46.0892 41.9123 46.4764 42.1196 46.8149 42.392C47.1534 42.6643 47.4296 42.9977 47.6451 43.3922C47.8599 43.7867 48.0012 44.2366 48.069 44.7411H46.2241C46.1842 44.4929 46.1076 44.2735 45.9942 44.0831C45.8809 43.8927 45.7396 43.7304 45.5703 43.5963C45.4011 43.4621 45.2071 43.3601 44.9884 43.2902C44.7696 43.2203 44.5325 43.1849 44.2779 43.1849C43.8165 43.1849 43.4109 43.3014 43.0629 43.5336C42.7148 43.7658 42.4442 44.1032 42.251 44.5459C42.0578 44.9886 41.9612 45.5261 41.9612 46.1591C41.9612 46.7922 42.0586 47.3466 42.2534 47.7877C42.4482 48.2287 42.7188 48.5605 43.0652 48.7855C43.4117 49.0096 43.8133 49.1221 44.2715 49.1221C44.5261 49.1221 44.7616 49.0868 44.9788 49.0169C45.1959 48.947 45.3907 48.845 45.5639 48.7108C45.7372 48.5766 45.8801 48.4135 45.9934 48.2207C46.1068 48.0279 46.185 47.8102 46.2289 47.5659H48.0738C48.0259 47.9829 47.9038 48.3814 47.7066 48.7614C47.5094 49.1422 47.2476 49.4821 46.9218 49.7825C46.5953 50.083 46.2074 50.3192 45.7579 50.4919C45.3085 50.6639 44.8024 50.7506 44.2411 50.7506L44.2403 50.7498Z" fill="#355C7D"/>
<path d="M53.0648 50.7555C52.3327 50.7555 51.6909 50.6181 51.1393 50.3441C50.5877 50.0702 50.1598 49.6885 49.8556 49.1993C49.5515 48.7108 49.399 48.1396 49.399 47.4872V41.6769H51.2199V47.337C51.2199 47.6856 51.2965 47.9949 51.4498 48.2649C51.6031 48.5356 51.8178 48.7477 52.0948 48.902C52.3711 49.0563 52.6952 49.1334 53.0648 49.1334C53.4344 49.1334 53.7641 49.0563 54.0411 48.902C54.3173 48.7477 54.5329 48.5356 54.6861 48.2649C54.8394 47.9941 54.916 47.6848 54.916 47.337V41.6769H56.7426V47.4872C56.7426 48.1404 56.5893 48.7108 56.2827 49.1993C55.9762 49.6877 55.5475 50.0694 54.9959 50.3441C54.4443 50.6189 53.8008 50.7555 53.0648 50.7555Z" fill="#355C7D"/>
<path d="M58.3487 50.6293V41.6769H61.8174C62.4943 41.6769 63.0691 41.7974 63.5425 42.0377C64.0159 42.2779 64.3775 42.6169 64.6258 43.0532C64.8749 43.4902 64.9986 44.0028 64.9986 44.5917C64.9986 45.1806 64.8725 45.6884 64.6194 46.115C64.3664 46.5416 64.0007 46.8678 63.521 47.0943C63.0412 47.3209 62.4592 47.4342 61.7743 47.4342H59.4217V45.9503H61.4813C61.8557 45.9503 62.1622 45.8989 62.4009 45.7968C62.6396 45.6948 62.8192 45.5421 62.9382 45.3405C63.0579 45.138 63.117 44.889 63.117 44.5925C63.117 44.296 63.0571 44.0325 62.9382 43.826C62.8184 43.6196 62.6388 43.4629 62.3977 43.3544C62.1567 43.246 61.8493 43.1922 61.4757 43.1922H60.1681V50.6309H58.3472L58.3487 50.6293ZM63.2982 50.6293L61.1308 46.5552H63.1066L65.3155 50.6293H63.2974H63.2982Z" fill="#355C7D"/>
<path d="M66.3789 50.6293V41.6769H72.331V43.197H68.1998V45.3598H72.0205V46.8557H68.1998V49.1085H72.343V50.6285H66.3789V50.6293Z" fill="#355C7D"/>
<path d="M14.3351 60.2759V56.3834H16.8793V57.0446H15.127V58.1316H16.7077V58.7823H15.127V60.2767H14.3351V60.2759Z" fill="#FFA07A"/>
<path d="M20.2162 60.3281C19.8753 60.3281 19.5688 60.2494 19.2958 60.0927C19.0228 59.936 18.808 59.7087 18.6491 59.4106C18.4911 59.1125 18.4113 58.7534 18.4113 58.3316C18.4113 57.9098 18.4903 57.5475 18.6491 57.2486C18.8072 56.9498 19.0228 56.7224 19.2958 56.5657C19.568 56.4091 19.8753 56.3303 20.2162 56.3303C20.5571 56.3303 20.866 56.4091 21.1375 56.5657C21.4089 56.7224 21.6244 56.9506 21.7825 57.2486C21.9405 57.5475 22.0204 57.9082 22.0204 58.3316C22.0204 58.755 21.9413 59.1125 21.7825 59.4106C21.6236 59.7087 21.4089 59.936 21.1375 60.0927C20.866 60.2494 20.5587 60.3281 20.2162 60.3281ZM20.2162 59.6203C20.4166 59.6203 20.5922 59.5713 20.7415 59.4725C20.8916 59.3745 21.0073 59.229 21.0904 59.0362C21.1734 58.8434 21.2149 58.6088 21.2149 58.3324C21.2149 58.0561 21.1734 57.8158 21.0904 57.623C21.0073 57.4302 20.8908 57.2848 20.7415 57.1868C20.5914 57.0888 20.4166 57.0389 20.2162 57.0389C20.0158 57.0389 19.8426 57.0888 19.6917 57.1876C19.5409 57.2872 19.4243 57.4326 19.3413 57.6254C19.2583 57.8183 19.2167 58.0537 19.2167 58.3324C19.2167 58.6112 19.2583 58.8434 19.3413 59.0354C19.4243 59.2266 19.5409 59.372 19.6917 59.4717C19.8426 59.5713 20.0174 59.6203 20.2162 59.6203Z" fill="#FFA07A"/>
<path d="M25.2719 60.3305C24.9533 60.3305 24.6739 60.2711 24.4344 60.1514C24.195 60.0324 24.009 59.8661 23.8764 59.654C23.7439 59.4419 23.6777 59.1937 23.6777 58.9093V56.3834H24.4696V58.8442C24.4696 58.996 24.5031 59.1302 24.5694 59.2475C24.6356 59.3648 24.729 59.4572 24.8496 59.5247C24.9701 59.5914 25.1106 59.6251 25.2711 59.6251C25.4315 59.6251 25.5752 59.5914 25.6958 59.5247C25.8163 59.458 25.9097 59.3656 25.976 59.2475C26.0422 59.1302 26.0758 58.9952 26.0758 58.8442V56.3834H26.8701V58.9093C26.8701 59.1929 26.8038 59.4411 26.6705 59.654C26.5372 59.8669 26.3504 60.0324 26.1109 60.1514C25.8714 60.2711 25.5912 60.3305 25.2711 60.3305H25.2719Z" fill="#FFA07A"/>
<path d="M28.6327 60.2759V56.3834H29.5157L30.7386 58.3533C30.8009 58.4545 30.864 58.5638 30.9278 58.6827C30.9917 58.8008 31.0572 58.9326 31.1242 59.0772C31.1905 59.2218 31.2567 59.3849 31.323 59.5657H31.2424C31.2304 59.421 31.2192 59.2668 31.2097 59.1037C31.2001 58.9398 31.1921 58.7831 31.1849 58.6337C31.1777 58.4843 31.1745 58.3565 31.1745 58.2521V56.3842H31.9848V60.2767H31.0995L29.9882 58.4899C29.9068 58.3557 29.8318 58.2256 29.7623 58.0994C29.6929 57.9733 29.621 57.8335 29.546 57.6817C29.4709 57.529 29.3815 57.3466 29.277 57.1345H29.3783C29.3887 57.3225 29.3991 57.5025 29.4095 57.6752C29.4199 57.848 29.4278 58.0038 29.4342 58.1444C29.4406 58.285 29.443 58.3991 29.443 58.4883V60.2775H28.6327V60.2759Z" fill="#FFA07A"/>
<path d="M34.5394 56.3834V60.2759H33.7475V56.3834H34.5394ZM35.1078 60.2759H34.1059V59.589H35.0686C35.3177 59.589 35.5269 59.5448 35.6953 59.4556C35.8638 59.3664 35.9907 59.229 36.0753 59.0426C36.1599 58.8563 36.2022 58.6176 36.2022 58.3268C36.2022 58.036 36.1591 57.8006 36.0737 57.615C35.9883 57.4294 35.8614 57.292 35.6945 57.2036C35.5277 57.1145 35.3201 57.0703 35.0726 57.0703H34.0859V56.3834H35.1189C35.5069 56.3834 35.8398 56.4613 36.12 56.6171C36.3994 56.773 36.6142 56.9964 36.765 57.2864C36.9159 57.5764 36.991 57.9235 36.991 58.3276C36.991 58.7317 36.9159 59.082 36.765 59.3728C36.6142 59.6637 36.3986 59.887 36.1176 60.0429C35.8366 60.1988 35.4997 60.2767 35.1062 60.2767L35.1078 60.2759Z" fill="#FFA07A"/>
<path d="M38.2036 60.2759L39.5248 56.3834H40.5634L41.9181 60.2759H41.0383L40.4181 58.3975C40.3438 58.1557 40.268 57.8906 40.1906 57.6021C40.1139 57.3137 40.0325 56.9996 39.9479 56.6581H40.1219C40.0389 57.0012 39.9614 57.3177 39.8896 57.6078C39.8177 57.8978 39.7467 58.1613 39.6756 58.3983L39.0785 60.2767H38.2036V60.2759ZM39.029 59.372V58.7478H41.0926V59.372H39.029Z" fill="#FFA07A"/>
<path d="M42.8305 57.0446V56.3834H45.9894V57.0446H44.8087V60.2759H44.0144V57.0446H42.8305Z" fill="#FFA07A"/>
<path d="M48.3899 56.3834V60.2759H47.598V56.3834H48.3899Z" fill="#FFA07A"/>
<path d="M51.8522 60.3281C51.5113 60.3281 51.2047 60.2494 50.9317 60.0927C50.6587 59.936 50.444 59.7087 50.2851 59.4106C50.127 59.1125 50.0472 58.7534 50.0472 58.3316C50.0472 57.9098 50.1262 57.5475 50.2851 57.2486C50.4432 56.9498 50.6587 56.7224 50.9317 56.5657C51.2039 56.4091 51.5113 56.3303 51.8522 56.3303C52.193 56.3303 52.502 56.4091 52.7734 56.5657C53.0448 56.7224 53.2604 56.9506 53.4184 57.2486C53.5765 57.5475 53.6563 57.9082 53.6563 58.3316C53.6563 58.755 53.5773 59.1125 53.4184 59.4106C53.2596 59.7087 53.0448 59.936 52.7734 60.0927C52.502 60.2494 52.1946 60.3281 51.8522 60.3281ZM51.8522 59.6203C52.0525 59.6203 52.2282 59.5713 52.3774 59.4725C52.5275 59.3745 52.6433 59.229 52.7263 59.0362C52.8093 58.8434 52.8508 58.6088 52.8508 58.3324C52.8508 58.0561 52.8093 57.8158 52.7263 57.623C52.6433 57.4302 52.5267 57.2848 52.3774 57.1868C52.2274 57.0888 52.0525 57.0389 51.8522 57.0389C51.6518 57.0389 51.4786 57.0888 51.3277 57.1876C51.1768 57.2872 51.0602 57.4326 50.9772 57.6254C50.8942 57.8183 50.8527 58.0537 50.8527 58.3324C50.8527 58.6112 50.8942 58.8434 50.9772 59.0354C51.0602 59.2266 51.1768 59.372 51.3277 59.4717C51.4786 59.5713 51.6534 59.6203 51.8522 59.6203Z" fill="#FFA07A"/>
<path d="M55.3136 60.2759V56.3834H56.1965L57.4195 58.3533C57.4818 58.4545 57.5449 58.5638 57.6087 58.6827C57.6726 58.8008 57.738 58.9326 57.8051 59.0772C57.8714 59.2218 57.9376 59.3849 58.0039 59.5657H57.9233C57.9113 59.421 57.9001 59.2668 57.8905 59.1037C57.8809 58.9398 57.873 58.7831 57.8658 58.6337C57.8586 58.4843 57.8554 58.3565 57.8554 58.2521V56.3842H58.6657V60.2767H57.7804L56.6691 58.4899C56.5877 58.3557 56.5126 58.2256 56.4432 58.0994C56.3737 57.9733 56.3019 57.8335 56.2269 57.6817C56.1518 57.529 56.0624 57.3466 55.9578 57.1345H56.0592C56.0696 57.3225 56.08 57.5025 56.0903 57.6752C56.1007 57.848 56.1087 58.0038 56.1151 58.1444C56.1215 58.285 56.1239 58.3991 56.1239 58.4883V60.2775H55.3136V60.2759Z" fill="#FFA07A"/>
<path d="M37.9181 7.03202C39.8355 6.71878 41.1376 4.90049 40.8264 2.97076C40.5151 1.04102 38.7084 -0.269408 36.7909 0.0438325C34.8735 0.357073 33.5714 2.17536 33.8826 4.1051C34.1939 6.03483 36.0006 7.34526 37.9181 7.03202Z" fill="#355C7D"/>
<path d="M57.4919 10.0284C59.0233 9.77826 60.0633 8.32602 59.8147 6.78477C59.5661 5.24352 58.1231 4.19691 56.5917 4.44709C55.0602 4.69727 54.0202 6.14951 54.2688 7.69075C54.5174 9.232 55.9604 10.2786 57.4919 10.0284Z" fill="#A8E6CF"/>
<path d="M16.4087 10.0299C17.9402 9.77975 18.9801 8.32752 18.7316 6.78627C18.483 5.24502 17.04 4.1984 15.5085 4.44858C13.9771 4.69876 12.9371 6.151 13.1857 7.69225C13.4343 9.2335 14.8773 10.2801 16.4087 10.0299Z" fill="#FFA07A"/>
<path d="M20.8868 18.3009C19.8849 17.5698 18.9629 16.8074 18.0217 16.0843C17.0853 15.3572 16.1441 14.6598 15.1757 14.0195C14.2066 13.3808 13.2127 12.7967 12.1645 12.3099C11.1156 11.8166 10.0163 11.4374 8.81486 11.1401C10.0235 10.8501 11.3175 10.9545 12.5302 11.2799C13.7476 11.6109 14.8939 12.1677 15.9349 12.8578C16.9767 13.5487 17.9195 14.3714 18.7545 15.2817C19.5848 16.1976 20.324 17.1922 20.8868 18.3009Z" fill="#FFA07A"/>
<path d="M64.1851 11.1393C62.1024 11.4309 60.2447 12.3147 58.601 13.4628C56.9541 14.614 55.4988 16.0248 54.1712 17.5393C53.5086 18.2977 52.8804 19.089 52.2848 19.8981C51.9887 20.3022 51.7045 20.72 51.4362 21.1249L51.2263 21.4527L50.9948 21.7981C50.8407 22.0255 50.6826 22.2472 50.523 22.4674C49.8843 23.3471 49.1906 24.1786 48.4618 24.9845C47.7249 25.7831 46.9434 26.5439 46.1124 27.2597C45.2725 27.9659 44.3816 28.6239 43.4293 29.2048C42.4713 29.776 41.4543 30.2781 40.3694 30.6397C39.2837 30.9924 38.1333 31.2189 36.9678 31.2286C36.3858 31.2487 35.8031 31.194 35.2339 31.1113C34.6631 31.0245 34.1083 30.8791 33.5678 30.7104C33.025 30.5449 32.5077 30.3215 32.004 30.0845C31.4994 29.8467 31.0173 29.5768 30.5534 29.2827C29.6234 28.6994 28.7692 28.0254 27.9789 27.2991C27.1886 26.5704 26.4629 25.7871 25.7932 24.9644C25.1226 24.1425 24.5143 23.2764 23.9674 22.3766C25.4978 23.8147 27.0736 25.1652 28.7652 26.2908C30.4489 27.4132 32.2506 28.3242 34.1051 28.7324C34.5673 28.8312 35.0303 28.9107 35.4925 28.938C35.954 28.9662 36.4122 28.983 36.868 28.9316C37.7781 28.8513 38.6818 28.6416 39.5559 28.3066C40.43 27.9691 41.2802 27.5321 42.0921 27.0099C42.9096 26.4973 43.6927 25.9084 44.4415 25.2689C45.1967 24.635 45.912 23.9424 46.6025 23.2226C47.297 22.5059 47.9509 21.7435 48.5783 20.9658C48.734 20.7714 48.8889 20.5753 49.0373 20.3777L49.2561 20.0837L49.4844 19.7631C49.8101 19.3108 50.1502 18.8922 50.4974 18.4768C50.8463 18.0631 51.2023 17.6574 51.5712 17.2645C51.9424 16.8732 52.3224 16.4908 52.7119 16.118C53.1015 15.7452 53.5054 15.3877 53.9198 15.0407C54.3325 14.6928 54.7556 14.3578 55.1954 14.0428C56.0688 13.4073 56.9908 12.8337 57.9648 12.3597C58.9387 11.8889 59.9613 11.5113 61.0143 11.2895C62.0648 11.0638 63.1458 11.0011 64.1859 11.1393H64.1851Z" fill="#A8E6CF"/>
<path d="M51.5695 22.2746C52.5922 23.0908 53.5461 23.9264 54.5209 24.7226C55.4908 25.5211 56.4695 26.2868 57.4818 26.9906C58.4932 27.6936 59.5382 28.3323 60.6439 28.8601C61.7503 29.3928 62.9126 29.8025 64.1851 30.0966C62.9055 30.3858 61.5356 30.2564 60.2599 29.8837C58.9794 29.5069 57.7788 28.8906 56.6963 28.1346C55.6114 27.3786 54.6334 26.4876 53.7689 25.5075C52.9083 24.5233 52.1475 23.4548 51.5695 22.2754V22.2746Z" fill="#E6E6FA"/>
<path d="M8.81406 30.0958C10.9088 29.8033 12.7768 28.9123 14.4285 27.7554C16.0818 26.5913 17.5451 25.1733 18.8759 23.646C19.5417 22.8819 20.1715 22.0842 20.767 21.2687C21.0624 20.8622 21.3506 20.4396 21.6132 20.0355L21.8344 19.6924L22.0675 19.3477C22.224 19.1204 22.3828 18.8978 22.5441 18.6777C23.8429 16.9238 25.3158 15.305 27.0034 13.8781C27.852 13.1719 28.7533 12.5155 29.7176 11.9379C30.686 11.3699 31.7182 10.8758 32.819 10.5343C33.9175 10.1945 35.0798 9.98559 36.2533 9.99845C36.8385 9.99845 37.4236 10.0507 37.9928 10.1551C38.5628 10.2571 39.12 10.4042 39.6581 10.5898C40.1985 10.7689 40.7174 10.9939 41.2172 11.2453C41.7185 11.4936 42.2023 11.7684 42.6621 12.0729C43.5889 12.6706 44.4375 13.3599 45.2247 14.0983C46.7925 15.583 48.1281 17.2645 49.2138 19.0842C47.689 17.6228 46.1164 16.2498 44.4271 15.0977C42.7459 13.9488 40.945 13.0048 39.0849 12.5573C38.6219 12.4408 38.1557 12.3629 37.6911 12.3227C37.2273 12.2745 36.765 12.2625 36.3068 12.2978C35.3912 12.3605 34.4803 12.5565 33.599 12.8811C32.716 13.2008 31.8555 13.6283 31.0364 14.1473C30.2118 14.6558 29.4207 15.2423 28.6639 15.881C27.8999 16.5109 27.1774 17.2042 26.4813 17.9265C25.7788 18.6431 25.1194 19.4088 24.4847 20.1881C24.3275 20.3833 24.171 20.5802 24.0201 20.7786L23.7974 21.0751L23.5771 21.3836C23.249 21.8455 22.9089 22.2641 22.56 22.6851C22.2104 23.1021 21.8543 23.5118 21.4839 23.9087C21.1103 24.3024 20.7319 24.6904 20.3392 25.0648C19.9504 25.4424 19.5425 25.8015 19.1281 26.1518C18.7122 26.5005 18.2907 26.8428 17.8477 27.1585C16.9703 27.7988 16.0459 28.3797 15.068 28.8585C14.09 29.3341 13.0626 29.7166 12.0041 29.9415C10.9479 30.1705 9.86063 30.2356 8.81486 30.0974L8.81406 30.0958Z" fill="#355C7D"/>
<path d="M29.051 19.1429C29.051 18.878 28.8378 18.6632 28.5749 18.6632C28.3119 18.6632 28.0987 18.878 28.0987 19.1429V21.4671C28.0987 21.732 28.3119 21.9468 28.5749 21.9468C28.8378 21.9468 29.051 21.732 29.051 21.4671V19.1429Z" fill="#355C7D"/>
<path d="M44.9005 19.1429C44.9005 18.878 44.6873 18.6632 44.4244 18.6632C44.1614 18.6632 43.9482 18.878 43.9482 19.1429V21.4671C43.9482 21.732 44.1614 21.9468 44.4244 21.9468C44.6873 21.9468 44.9005 21.732 44.9005 21.4671V19.1429Z" fill="#355C7D"/>
<path d="M33.013 16.7246C33.013 16.4597 32.7998 16.245 32.5368 16.245C32.2738 16.245 32.0606 16.4597 32.0606 16.7246V23.8854C32.0606 24.1503 32.2738 24.365 32.5368 24.365C32.7998 24.365 33.013 24.1503 33.013 23.8854V16.7246Z" fill="#355C7D"/>
<path d="M40.9386 16.7246C40.9386 16.4597 40.7254 16.245 40.4624 16.245C40.1994 16.245 39.9862 16.4597 39.9862 16.7246V23.8854C39.9862 24.1503 40.1994 24.365 40.4624 24.365C40.7254 24.365 40.9386 24.1503 40.9386 23.8854V16.7246Z" fill="#355C7D"/>
<path d="M36.9758 16.3237C36.9758 16.0588 36.7626 15.8441 36.4996 15.8441C36.2366 15.8441 36.0234 16.0588 36.0234 16.3237V24.2871C36.0234 24.552 36.2366 24.7667 36.4996 24.7667C36.7626 24.7667 36.9758 24.552 36.9758 24.2871V16.3237Z" fill="#355C7D"/>
</g>
<defs>
<clipPath id="clip0_200_1922">
<rect width="73" height="62" fill="white"/>
</clipPath>
</defs>
</svg>
