<svg width="16" height="16" viewBox="0 0 16 16" fill="none" xmlns="http://www.w3.org/2000/svg">
<g clip-path="url(#clip0_450_432)">
<path d="M11.3335 1.5H4.66683C2.82588 1.5 1.3335 2.99238 1.3335 4.83333V11.5C1.3335 13.3409 2.82588 14.8333 4.66683 14.8333H11.3335C13.1744 14.8333 14.6668 13.3409 14.6668 11.5V4.83333C14.6668 2.99238 13.1744 1.5 11.3335 1.5Z" stroke="white" stroke-width="1.2" stroke-linecap="round" stroke-linejoin="round"/>
<path d="M10.5556 7.76371C10.6345 8.29542 10.5437 8.83846 10.2961 9.31558C10.0485 9.7927 9.65682 10.1796 9.17668 10.4213C8.69654 10.6629 8.15243 10.7471 7.62173 10.6617C7.09103 10.5763 6.60076 10.3257 6.22068 9.94562C5.84059 9.56553 5.59002 9.07527 5.50463 8.54457C5.41923 8.01387 5.50335 7.46975 5.74501 6.98961C5.98668 6.50948 6.37359 6.11776 6.85071 5.8702C7.32783 5.62263 7.87087 5.53181 8.40258 5.61065C8.94495 5.69108 9.44707 5.94381 9.83478 6.33152C10.2225 6.71922 10.4752 7.22134 10.5556 7.76371Z" stroke="white" stroke-width="1.2" stroke-linecap="round" stroke-linejoin="round"/>
<path d="M11.5142 4.65234H11.5208" stroke="white" stroke-width="1.2" stroke-linecap="round" stroke-linejoin="round"/>
</g>
<defs>
<clipPath id="clip0_450_432">
<rect width="15.3333" height="15.3333" fill="white" transform="translate(0.333496 0.5)"/>
</clipPath>
</defs>
</svg>
