<svg width="16" height="17" viewBox="0 0 16 17" fill="none" xmlns="http://www.w3.org/2000/svg">
<path d="M13.3333 7.16659C13.3333 10.4953 9.64063 13.9619 8.40063 15.0326C8.28511 15.1194 8.14449 15.1664 7.99996 15.1664C7.85543 15.1664 7.71481 15.1194 7.59929 15.0326C6.35929 13.9619 2.66663 10.4953 2.66663 7.16659C2.66663 5.7521 3.22853 4.39554 4.22872 3.39535C5.22892 2.39516 6.58547 1.83325 7.99996 1.83325C9.41445 1.83325 10.771 2.39516 11.7712 3.39535C12.7714 4.39554 13.3333 5.7521 13.3333 7.16659Z" stroke="#FF8A65" stroke-width="1.2" stroke-linecap="round" stroke-linejoin="round"/>
<path d="M8 9.16675C9.10457 9.16675 10 8.27132 10 7.16675C10 6.06218 9.10457 5.16675 8 5.16675C6.89543 5.16675 6 6.06218 6 7.16675C6 8.27132 6.89543 9.16675 8 9.16675Z" stroke="#FF8A65" stroke-width="1.2" stroke-linecap="round" stroke-linejoin="round"/>
</svg>
