<svg width="49" height="48" viewBox="0 0 49 48" fill="none" xmlns="http://www.w3.org/2000/svg">
<rect x="0.5" width="48" height="48" rx="24" fill="#C7D2FE"/>
<path d="M33.0408 8.15958C33.393 8.57814 33.0848 9.27039 32.5405 9.26824C32.315 9.26824 30.5692 8.37745 30.1258 8.21538C19.328 4.28193 7.11502 12.8411 7.69909 24.4354C8.2327 35.0262 17.0207 42.1386 27.5243 40.3903C37.8133 38.6785 43.7377 27.7829 40.1292 18.0968C39.9638 17.6525 39.2122 16.2508 39.1843 15.976C39.1124 15.2731 39.9552 14.964 40.4588 15.6755C41.1438 16.6436 41.9072 19.2387 42.1391 20.4354C45.1056 35.668 29.1917 47.0681 15.5358 39.7034C5.65054 34.3726 3.57837 20.4934 10.7977 12.0802C15.2867 6.84807 23.162 4.74557 29.7436 6.74718C30.2965 6.91568 32.7552 7.81936 33.0408 8.15958Z" fill="#0C4A6E"/>
<path d="M23.8675 11.7827C25.6058 11.6689 28.8279 12.2034 30.272 13.2219C30.9817 13.722 30.6767 14.5677 29.9713 14.4958C29.7083 14.469 28.6475 13.8605 28.2524 13.7124C17.2892 9.58143 8.18022 23.905 16.9585 32.0038C25.6692 40.0402 38.9987 30.5345 34.528 19.6732C34.3046 19.1312 33.4307 18.0504 34.4507 17.766C35.2012 17.5567 35.7681 19.29 35.9645 19.8471C39.148 28.8484 31.4669 37.7639 22.096 35.964C8.24356 33.3024 9.26892 12.7379 23.8675 11.7827Z" fill="#0C4A6E"/>
<path d="M38.0561 10.3908L40.5921 10.5517C41.2556 10.5603 41.7667 11.0648 41.3211 11.6819L36.4262 16.5276C36.3189 16.5834 36.204 16.5963 36.0848 16.5963C35.2602 16.5941 34.2714 16.3784 33.4286 16.343C33.2793 16.3366 33.1247 16.3258 32.9851 16.3891L24.9348 24.4396C24.2766 24.9773 23.4671 24.2357 23.9653 23.5509L32.0564 15.4597C32.1498 14.3274 31.8052 13.1436 31.9179 12.0199L36.7655 7.127C37.0329 6.84581 37.5879 6.95313 37.7544 7.27189C38.0024 8.28182 37.9401 9.35614 38.0571 10.3897L38.0561 10.3908ZM39.3455 11.7591C38.7625 11.6733 37.4602 11.8171 37.0457 11.4415C36.5927 11.0304 36.8246 9.70173 36.6485 9.10178L33.1891 12.5587L33.3974 15.0465L35.8862 15.2547L39.3445 11.7581L39.3455 11.7591Z" fill="#0C4A6E"/>
<path d="M26.7612 18.981C26.3833 19.3588 25.344 18.8833 24.8093 18.8436C20.3772 18.5195 17.6362 23.7065 20.388 27.2075C23.4672 31.1237 30.0552 28.6671 29.5914 23.4811C29.5367 22.8672 29.017 22.087 29.5603 21.6588C30.5738 20.8603 30.8583 22.981 30.8895 23.552C31.3393 31.802 19.2359 32.9096 18.0957 24.9912C17.4375 20.4192 21.7096 16.358 26.2029 17.7725C26.7365 17.94 27.253 18.4884 26.7602 18.981H26.7612Z" fill="#0C4A6E"/>
</svg>
