<svg width="16" height="17" viewBox="0 0 16 17" fill="none" xmlns="http://www.w3.org/2000/svg">
<path d="M8.66675 1.83325C10.258 1.83325 11.7842 2.46539 12.9094 3.59061C14.0346 4.71583 14.6667 6.24195 14.6667 7.83325" stroke="#FF8A65" stroke-width="1.2" stroke-linecap="round" stroke-linejoin="round"/>
<path d="M8.66675 4.5C9.5508 4.5 10.3986 4.85119 11.0238 5.47631C11.6489 6.10143 12.0001 6.94928 12.0001 7.83333" stroke="#FF8A65" stroke-width="1.2" stroke-linecap="round" stroke-linejoin="round"/>
<path d="M9.22125 11.5453C9.35894 11.6085 9.51405 11.6229 9.66105 11.5862C9.80804 11.5495 9.93814 11.4638 10.0299 11.3433L10.2666 11.0333C10.3908 10.8677 10.5518 10.7333 10.737 10.6407C10.9221 10.5481 11.1263 10.4999 11.3333 10.4999H13.3333C13.6869 10.4999 14.026 10.6404 14.2761 10.8904C14.5261 11.1405 14.6666 11.4796 14.6666 11.8333V13.8333C14.6666 14.1869 14.5261 14.526 14.2761 14.7761C14.026 15.0261 13.6869 15.1666 13.3333 15.1666C10.1507 15.1666 7.09841 13.9023 4.84797 11.6519C2.59753 9.40143 1.33325 6.34918 1.33325 3.16659C1.33325 2.81296 1.47373 2.47382 1.72378 2.22378C1.97382 1.97373 2.31296 1.83325 2.66659 1.83325H4.66659C5.02021 1.83325 5.35935 1.97373 5.60939 2.22378C5.85944 2.47382 5.99992 2.81296 5.99992 3.16659V5.16659C5.99992 5.37358 5.95173 5.57773 5.85915 5.76287C5.76658 5.94801 5.63218 6.10906 5.46658 6.23325L5.15458 6.46725C5.0322 6.5607 4.94593 6.69364 4.91045 6.84349C4.87496 6.99333 4.89244 7.15084 4.95992 7.28925C5.87104 9.13983 7.36953 10.6364 9.22125 11.5453Z" stroke="#FF8A65" stroke-width="1.2" stroke-linecap="round" stroke-linejoin="round"/>
</svg>
