<svg width="49" height="48" viewBox="0 0 49 48" fill="none" xmlns="http://www.w3.org/2000/svg">
<rect x="0.5" width="48.2066" height="48" rx="24" fill="#FFAB91"/>
<path d="M16.1279 14.3427L34.1998 14.3584C36.1017 14.6583 38.8717 18.2964 40.5605 19.3933C41.5233 20.1825 41.9968 21.2873 41.4365 22.4948C36.9935 28.0584 32.2585 33.3932 27.7208 38.8937C26.2687 40.3615 24.0432 40.3615 22.5359 38.9726L9.12005 23.0156C8.37823 22.0607 8.3151 20.9085 9.08059 19.9457C10.872 18.4858 12.5845 16.5208 14.4075 15.1397C14.8968 14.7688 15.5123 14.4216 16.1279 14.3427ZM24.5088 15.4317H20.7761L18.2981 20.6876H24.5167V15.4317H24.5088ZM32.2743 20.6876L29.4964 15.4317H25.7952L25.6847 15.5422V20.6876H32.2664H32.2743ZM40.1186 20.6876C39.9765 20.4824 39.7871 20.3009 39.6056 20.1351C38.2719 18.8962 36.4647 17.0732 35.0521 16.0315C34.7601 15.8184 34.0736 15.4396 33.7184 15.4396H30.8695L33.6474 20.6955H40.1186V20.6876ZM19.4029 15.5106H16.1831C15.8911 15.5106 15.2756 15.9447 15.0388 16.142C13.5394 17.3257 11.8821 18.9672 10.4537 20.2851C10.2959 20.4271 10.1302 20.5929 10.0118 20.7665H16.8539L19.4029 15.5106ZM16.8855 21.8713H9.86187L21.2575 35.4845L16.8934 21.8713H16.8855ZM24.5088 21.8713H18.1481L23.3251 37.9704C23.5303 38.3728 24.0827 38.649 24.5088 38.7437V21.8713ZM32.4242 21.8713H25.6926V38.7437C26.1424 38.649 26.7027 38.3571 26.9158 37.9309L32.4242 21.8792V21.8713ZM40.3396 21.8713H33.7895L29.0939 35.3345L40.3396 21.8713Z" fill="#0C4A6E"/>
<path d="M24.9349 7.01917C25.3453 6.93236 25.6452 7.14544 25.7004 7.5558C25.7635 8.07666 25.7714 9.78915 25.7004 10.2942C25.5978 10.9492 24.6035 10.9808 24.5167 10.2232C24.4535 9.69445 24.4456 7.98985 24.5167 7.48478C24.5482 7.26381 24.714 7.05863 24.9349 7.01128V7.01917Z" fill="#0C4A6E"/>
<path d="M32.4006 9.98656C32.6847 10.247 32.5979 10.5705 32.3848 10.8546C32.1954 11.1072 30.7276 12.5908 30.4908 12.7329C29.97 13.0564 29.386 12.6697 29.5675 12.1015C29.607 11.9674 31.2484 10.2312 31.4536 10.0655C31.7535 9.83661 32.0692 9.68667 32.3927 9.97866L32.4006 9.98656Z" fill="#0C4A6E"/>
<path d="M17.801 9.98648C18.3929 9.44984 19.2373 10.5547 19.6319 10.9572C19.7818 11.115 20.6025 12.0067 20.6341 12.1014C20.7762 12.5592 20.1685 13.0406 19.7502 12.7565C19.2136 12.1251 18.2982 11.4859 17.8168 10.8467C17.6116 10.5705 17.5248 10.239 17.801 9.97858V9.98648Z" fill="#0C4A6E"/>
</svg>
