<svg width="49" height="48" viewBox="0 0 49 48" fill="none" xmlns="http://www.w3.org/2000/svg">
<rect x="0.5" width="48" height="48" rx="24" fill="#A7F3D0"/>
<path d="M24.4672 15.88C30.055 15.88 35.5537 17.9165 39.7566 21.5466C40.8499 22.4884 42.0646 23.4624 41.2143 25.032C40.858 25.692 39.5137 26.7464 38.882 27.2455C30.4761 33.8217 18.5799 33.8378 10.1578 27.2777C9.45322 26.7303 7.87408 25.4988 7.60684 24.6778C7.13714 23.237 8.31138 22.3435 9.27506 21.5144C13.4456 17.9245 18.9281 15.8881 24.4672 15.88ZM31.4803 24.0499C31.4803 20.2105 28.3463 17.0954 24.4834 17.0954C20.6206 17.0954 17.4866 20.2105 17.4866 24.0499C17.4866 27.8894 20.6206 31.0045 24.4834 31.0045C28.3463 31.0045 31.4803 27.8894 31.4803 24.0499ZM19.1791 17.7394C16.3124 18.4155 13.559 19.7195 11.2105 21.4823C10.6437 21.9089 9.16169 23.084 8.81347 23.6314C8.38426 24.3075 9.29126 24.9756 9.76095 25.4022C12.401 27.8089 15.7455 29.4671 19.2115 30.3444L18.1102 29.1692C15.2839 25.6276 15.8589 20.7256 19.171 17.7394H19.1791ZM29.7311 30.3364C32.9217 29.62 36.0719 28.0424 38.5743 25.9576C38.9711 25.6276 39.8214 24.9193 40.0967 24.5249C40.202 24.38 40.2911 24.219 40.283 24.0258C40.283 23.5348 39.1492 22.6252 38.7605 22.2872C36.1853 20.0897 33.0594 18.5282 29.7635 17.7233L30.8648 18.8985C33.2376 21.8767 33.2943 26.014 30.9701 29.0405L29.723 30.3283L29.7311 30.3364Z" fill="#0C4A6E"/>
<path d="M32.4601 13.5859C34.2984 14.085 36.1529 14.8497 37.8292 15.7592C38.1774 15.9444 39.3759 16.5963 39.5379 16.8459C39.7727 17.2081 39.5703 17.7232 39.1654 17.7957C38.7929 17.8601 37.6267 17.0229 37.2218 16.8137C29.0346 12.5234 20.0051 12.5073 11.8097 16.7895C11.3967 17.0069 10.182 17.8681 9.81759 17.7957C9.34789 17.7071 9.16163 17.0632 9.53415 16.7171C9.82568 16.4434 10.9351 15.88 11.3481 15.6546C12.9678 14.7933 14.7413 14.0528 16.5148 13.5779C16.5472 13.4652 16.4824 13.4491 16.4419 13.3928C16.0937 12.8937 14.6765 12.129 15.3001 11.4288C15.5754 11.1229 15.9074 11.2356 16.207 11.4288C16.5958 11.6863 17.7133 13.0788 17.9967 13.1191C19.916 12.7408 21.8434 12.4269 23.8031 12.4027C23.9894 12.2739 23.795 10.0523 23.8922 9.62573C24.0299 9.00594 24.9369 9.00594 25.0746 9.62573C25.1717 10.0604 24.9774 12.282 25.1636 12.4027C27.1234 12.4269 29.0589 12.7327 30.97 13.1191C31.2211 13.0788 32.371 11.7266 32.7192 11.4609C33.0027 11.2436 33.2456 11.1068 33.5857 11.3483C34.5656 12.0485 32.2333 13.3364 32.452 13.5698L32.4601 13.5859Z" fill="#0C4A6E"/>
<path d="M23.8843 36.1479C22.2889 36.0513 20.7017 35.8823 19.1468 35.5442C18.6771 35.6086 17.2438 38.0877 16.6607 36.7355C16.3611 36.0432 17.4867 35.6569 17.6649 35.0934C16.1748 34.6668 14.6443 34.047 13.2838 33.2985C12.7736 33.0167 11.1296 32.2923 11.9638 31.584C12.4739 31.1493 13.4214 32.0025 13.9397 32.2682C20.9608 35.8984 28.2006 35.8259 35.1974 32.1957C35.6752 31.9462 36.7604 30.9883 37.1572 31.753C37.2787 31.9864 37.2787 32.1072 37.1572 32.3406C36.9871 32.6626 35.2946 33.548 34.8654 33.7573C33.7398 34.3127 32.5412 34.7795 31.3184 35.1015C31.4966 35.6649 32.6222 36.0513 32.3226 36.7435C31.7395 38.0958 30.3061 35.6166 29.8364 35.5522C28.2735 35.8903 26.6943 36.0593 25.099 36.1559V38.3856C25.099 38.5707 24.6779 38.8685 24.4673 38.8524C24.2811 38.8444 23.8843 38.5465 23.8843 38.3856V36.1559V36.1479Z" fill="#0C4A6E"/>
<path d="M23.868 19.5665C27.3502 19.1882 29.9335 22.1664 28.8727 25.5229C27.6256 29.4911 21.5681 29.5233 20.2805 25.5792C20.1186 25.0882 20.1186 24.4926 19.9728 24.074C19.9161 23.905 19.7298 23.7118 19.6489 23.4945C19.0901 22.0537 19.6732 20.4599 21.147 19.8884C21.9002 19.5987 22.0945 19.7918 22.7829 19.7757C23.1392 19.7757 23.536 19.5987 23.868 19.5665ZM22.1674 26.3922C23.6656 27.9135 26.4756 27.5352 27.496 25.6678C28.7593 23.3576 26.9858 20.5404 24.3458 20.7658C24.4106 21.0073 24.5968 21.2005 24.6859 21.45C25.4633 23.583 23.5765 25.5792 21.3819 25.0721C21.5519 25.539 21.8192 26.0461 22.1674 26.4002V26.3922ZM23.6575 22.4078C23.6575 21.5707 22.9772 20.8946 22.135 20.8946C21.2928 20.8946 20.6125 21.5707 20.6125 22.4078C20.6125 23.245 21.2928 23.9211 22.135 23.9211C22.9772 23.9211 23.6575 23.245 23.6575 22.4078Z" fill="#0C4A6E"/>
</svg>
