<svg width="106" height="90" viewBox="0 0 106 90" fill="none" xmlns="http://www.w3.org/2000/svg">
<g clip-path="url(#clip0_2_1923)">
<path d="M1.17065 73.4942V60.4988H9.66628V62.7053H3.81474V66.3335H9.0948V68.505H3.81474V73.4942H1.17065Z" fill="white"/>
<path d="M17.2601 73.669C16.1218 73.669 15.0971 73.4078 14.1871 72.8842C13.2772 72.3605 12.5573 71.6024 12.0287 70.6076C11.5001 69.6128 11.2358 68.4128 11.2358 67.0051C11.2358 65.5975 11.5001 64.3869 12.0287 63.3898C12.5573 62.3926 13.2772 61.6323 14.1871 61.1086C15.0971 60.585 16.1218 60.3237 17.2601 60.3237C18.3984 60.3237 19.4301 60.585 20.3377 61.1086C21.2454 61.6323 21.9629 62.3926 22.4915 63.3898C23.0201 64.3869 23.2844 65.5916 23.2844 67.0051C23.2844 68.4186 23.0201 69.6128 22.4915 70.6076C21.9629 71.6024 21.2442 72.3605 20.3377 72.8842C19.4301 73.4078 18.4042 73.669 17.2601 73.669ZM17.2601 71.3051C17.9301 71.3051 18.5155 71.1406 19.0151 70.8117C19.5147 70.4829 19.9042 69.9977 20.1812 69.3551C20.4583 68.7125 20.5974 67.9288 20.5974 67.004C20.5974 66.0791 20.4583 65.2791 20.1812 64.6365C19.9042 63.9939 19.5147 63.5087 19.0151 63.1799C18.5155 62.851 17.9301 62.6865 17.2601 62.6865C16.5901 62.6865 16.0117 62.8521 15.5086 63.1834C15.0055 63.5146 14.616 64.0021 14.3378 64.6447C14.0608 65.2873 13.9217 66.0733 13.9217 67.004C13.9217 67.9346 14.0608 68.7102 14.3378 69.3504C14.6148 69.9907 15.0055 70.4759 15.5086 70.8071C16.0117 71.1383 16.5947 71.3039 17.2601 71.3039V71.3051Z" fill="white"/>
<path d="M25.2711 73.4942V60.4988H30.3077C31.2907 60.4988 32.1253 60.6737 32.8127 61.0224C33.5001 61.3711 34.0252 61.8633 34.3857 62.4966C34.7474 63.131 34.9271 63.8751 34.9271 64.7299C34.9271 65.5848 34.7439 66.3218 34.3765 66.9411C34.009 67.5604 33.4781 68.0339 32.7814 68.3627C32.0848 68.6916 31.2397 68.8561 30.2452 68.8561H26.8291V66.702H29.8197C30.3634 66.702 30.8085 66.6274 31.1551 66.4793C31.5017 66.3312 31.7625 66.1096 31.9352 65.8168C32.1091 65.5229 32.1949 65.1614 32.1949 64.7311C32.1949 64.3007 32.108 63.9182 31.9352 63.6185C31.7614 63.3188 31.5005 63.0913 31.1505 62.9339C30.8004 62.7764 30.3541 62.6983 29.8116 62.6983H27.9129V73.4965H25.2688L25.2711 73.4942ZM32.458 73.4942L29.3109 67.5802H32.1798L35.3873 73.4942H32.4569H32.458Z" fill="white"/>
<path d="M40.3904 73.4942L44.8034 60.4988H48.2716L52.7971 73.4942H49.8586L47.7859 67.2233C47.5379 66.4151 47.284 65.5299 47.0278 64.5678C46.7705 63.6056 46.5004 62.5549 46.2176 61.4143H46.7983C46.5213 62.5595 46.2616 63.6161 46.0228 64.5853C45.7829 65.5533 45.5441 66.4326 45.3076 67.2233L43.3138 73.4942H40.3927H40.3904ZM43.1469 70.4771V68.3931H50.0394V70.4771H43.1469Z" fill="white"/>
<path d="M64.2392 73.669C63.0951 73.669 62.0704 73.4078 61.1662 72.8841C60.2621 72.3605 59.548 71.6024 59.0252 70.6076C58.5025 69.6128 58.2405 68.4128 58.2405 67.0051C58.2405 65.5975 58.5036 64.3869 59.0299 63.3898C59.5561 62.3926 60.2725 61.6323 61.1802 61.1086C62.0878 60.585 63.1079 60.3237 64.2404 60.3237C64.9742 60.3237 65.6581 60.4275 66.291 60.6339C66.9239 60.8404 67.4861 61.1413 67.9776 61.5366C68.4691 61.932 68.8702 62.416 69.1831 62.9886C69.495 63.5612 69.7001 64.2143 69.7987 64.9467H67.1198C67.0618 64.5863 66.9506 64.268 66.786 63.9916C66.6214 63.7152 66.4162 63.4796 66.1704 63.2848C65.9247 63.0901 65.643 62.9419 65.3254 62.8405C65.0078 62.739 64.6635 62.6877 64.2937 62.6877C63.6237 62.6877 63.0348 62.8568 62.5294 63.1938C62.024 63.5309 61.6311 64.0207 61.3506 64.6633C61.07 65.3059 60.9298 66.0861 60.9298 67.0051C60.9298 67.9241 61.0712 68.7288 61.354 69.3691C61.6369 70.0094 62.0298 70.491 62.5329 70.8176C63.036 71.1429 63.6191 71.3062 64.2844 71.3062C64.6542 71.3062 64.9962 71.2549 65.3115 71.1534C65.6268 71.052 65.9096 70.9039 66.1612 70.7091C66.4127 70.5143 66.6202 70.2776 66.7848 69.9977C66.9494 69.7178 67.063 69.4017 67.1268 69.0472H69.8056C69.7361 69.6525 69.5587 70.2309 69.2724 70.7826C68.9861 71.3354 68.6059 71.8287 68.1329 72.2649C67.6588 72.701 67.0955 73.0439 66.4428 73.2947C65.7902 73.5442 65.0553 73.6702 64.2404 73.6702L64.2392 73.669Z" fill="white"/>
<path d="M77.0529 73.6773C75.99 73.6773 75.058 73.4779 74.257 73.0802C73.456 72.6825 72.8347 72.1285 72.393 71.4183C71.9514 70.7092 71.73 69.88 71.73 68.933V60.4988H74.3741V68.715C74.3741 69.2211 74.4854 69.6701 74.7079 70.062C74.9305 70.455 75.2423 70.7629 75.6445 70.9868C76.0456 71.2107 76.5162 71.3227 77.0529 71.3227C77.5896 71.3227 78.0684 71.2107 78.4706 70.9868C78.8717 70.7629 79.1847 70.455 79.4072 70.062C79.6298 69.6689 79.7411 69.2199 79.7411 68.715V60.4988H82.3933V68.933C82.3933 69.8812 82.1707 70.7092 81.7256 71.4183C81.2805 72.1274 80.658 72.6813 79.857 73.0802C79.056 73.479 78.1217 73.6773 77.0529 73.6773Z" fill="white"/>
<path d="M84.7255 73.4942V60.4988H89.7621C90.7451 60.4988 91.5797 60.6737 92.2671 61.0224C92.9545 61.3711 93.4796 61.8633 93.8401 62.4966C94.2017 63.131 94.3814 63.8751 94.3814 64.7299C94.3814 65.5848 94.1983 66.3218 93.8308 66.9411C93.4634 67.5604 92.9325 68.0339 92.2358 68.3627C91.5391 68.6916 90.6941 68.8561 89.6995 68.8561H86.2834V66.702H89.2741C89.8177 66.702 90.2629 66.6274 90.6095 66.4793C90.956 66.3312 91.2169 66.1096 91.3896 65.8168C91.5635 65.5229 91.6492 65.1614 91.6492 64.7311C91.6492 64.3007 91.5623 63.9182 91.3896 63.6185C91.2157 63.3188 90.9549 63.0913 90.6048 62.9339C90.2547 62.7764 89.8085 62.6983 89.266 62.6983H87.3672V73.4965H84.7231L84.7255 73.4942ZM91.9124 73.4942L88.7652 67.5802H91.6342L94.8416 73.4942H91.9112H91.9124Z" fill="white"/>
<path d="M96.3857 73.4942V60.4988H105.029V62.7053H99.0298V65.8448H104.578V68.0164H99.0298V71.2865H105.046V73.493H96.3857V73.4942Z" fill="white"/>
<path d="M20.8154 87.4971V81.8467H24.5097V82.8065H21.9653V84.3844H24.2605V85.3291H21.9653V87.4983H20.8154V87.4971Z" fill="white"/>
<path d="M29.355 87.573C28.8601 87.573 28.4149 87.4587 28.0185 87.2313C27.6221 87.0039 27.3102 86.6738 27.0796 86.2411C26.85 85.8085 26.7341 85.2872 26.7341 84.6749C26.7341 84.0626 26.8489 83.5366 27.0796 83.1028C27.3091 82.6689 27.6221 82.3389 28.0185 82.1115C28.4138 81.8841 28.8601 81.7698 29.355 81.7698C29.85 81.7698 30.2986 81.8841 30.6927 82.1115C31.0868 82.3389 31.3998 82.6701 31.6293 83.1028C31.8589 83.5366 31.9748 84.0603 31.9748 84.6749C31.9748 85.2895 31.86 85.8085 31.6293 86.2411C31.3987 86.6738 31.0868 87.0039 30.6927 87.2313C30.2986 87.4587 29.8523 87.573 29.355 87.573ZM29.355 86.5455C29.646 86.5455 29.901 86.4744 30.1178 86.3309C30.3357 86.1887 30.5038 85.9776 30.6243 85.6977C30.7449 85.4178 30.8052 85.0772 30.8052 84.676C30.8052 84.2749 30.7449 83.9262 30.6243 83.6463C30.5038 83.3664 30.3345 83.1553 30.1178 83.013C29.8999 82.8707 29.646 82.7984 29.355 82.7984C29.0641 82.7984 28.8125 82.8707 28.5935 83.0142C28.3744 83.1588 28.2051 83.3699 28.0846 83.6498C27.964 83.9297 27.9037 84.2714 27.9037 84.676C27.9037 85.0807 27.964 85.4178 28.0846 85.6965C28.2051 85.9741 28.3744 86.1852 28.5935 86.3298C28.8125 86.4744 29.0664 86.5455 29.355 86.5455Z" fill="white"/>
<path d="M36.6962 87.5764C36.2337 87.5764 35.828 87.4901 35.4802 87.3164C35.1325 87.1437 34.8624 86.9023 34.67 86.5944C34.4776 86.2866 34.3813 85.9262 34.3813 85.5133V81.8467H35.5313V85.4189C35.5313 85.6393 35.5799 85.8341 35.6761 86.0043C35.7724 86.1746 35.908 86.3087 36.083 86.4067C36.2581 86.5035 36.4621 86.5525 36.6951 86.5525C36.9281 86.5525 37.1367 86.5035 37.3118 86.4067C37.4868 86.3099 37.6224 86.1758 37.7186 86.0043C37.8148 85.8341 37.8635 85.6381 37.8635 85.4189V81.8467H39.0169V85.5133C39.0169 85.925 38.9207 86.2854 38.7271 86.5944C38.5335 86.9035 38.2623 87.1437 37.9145 87.3164C37.5668 87.4901 37.1599 87.5764 36.6951 87.5764H36.6962Z" fill="white"/>
<path d="M41.5764 87.4971V81.8467H42.8585L44.6343 84.7063C44.7247 84.8533 44.8163 85.0119 44.9091 85.1845C45.0018 85.3559 45.0968 85.5472 45.1942 85.7571C45.2904 85.967 45.3866 86.2038 45.4828 86.4662H45.3658C45.3484 86.2562 45.3322 86.0323 45.3182 85.7956C45.3043 85.5577 45.2927 85.3302 45.2823 85.1133C45.2719 84.8964 45.2672 84.711 45.2672 84.5594V81.8478H46.4438V87.4983H45.1583L43.5447 84.9046C43.4265 84.7098 43.3175 84.5209 43.2167 84.3378C43.1158 84.1547 43.0115 83.9517 42.9025 83.7313C42.7936 83.5097 42.6637 83.245 42.5119 82.9371H42.6591C42.6742 83.21 42.6892 83.4713 42.7043 83.722C42.7194 83.9727 42.731 84.199 42.7402 84.4031C42.7495 84.6072 42.753 84.7728 42.753 84.9022V87.4995H41.5764V87.4971Z" fill="white"/>
<path d="M50.1531 81.8467V87.4971H49.0032V81.8467H50.1531ZM50.9784 87.4971H49.5236V86.5H50.9216C51.2833 86.5 51.587 86.4358 51.8316 86.3064C52.0762 86.1769 52.2605 85.9775 52.3833 85.7069C52.5062 85.4364 52.5677 85.09 52.5677 84.6678C52.5677 84.2456 52.5051 83.9039 52.381 83.6345C52.257 83.3651 52.0727 83.1657 51.8304 83.0374C51.5881 82.908 51.2868 82.8438 50.9274 82.8438H49.4947V81.8467H50.9946C51.558 81.8467 52.0414 81.9598 52.4483 82.1861C52.854 82.4123 53.1658 82.7365 53.3849 83.1575C53.604 83.5785 53.7129 84.0824 53.7129 84.669C53.7129 85.2556 53.604 85.7641 53.3849 86.1863C53.1658 86.6084 52.8528 86.9327 52.4448 87.1589C52.0367 87.3852 51.5476 87.4983 50.9761 87.4983L50.9784 87.4971Z" fill="white"/>
<path d="M55.4736 87.4971L57.3921 81.8467H58.9002L60.8673 87.4971H59.5899L58.6892 84.7704C58.5814 84.4194 58.4713 84.0345 58.3588 83.6159C58.2476 83.1972 58.1293 82.7412 58.0064 82.2455H58.2591C58.1386 82.7435 58.0261 83.203 57.9218 83.624C57.8175 84.045 57.7143 84.4276 57.6112 84.7716L56.7441 87.4983H55.4736V87.4971ZM56.6722 86.1851V85.2789H59.6687V86.1851H56.6722Z" fill="white"/>
<path d="M62.1924 82.8065V81.8467H66.7793V82.8065H65.0648V87.4971H63.9114V82.8065H62.1924Z" fill="white"/>
<path d="M70.2649 81.8467V87.4971H69.115V81.8467H70.2649Z" fill="white"/>
<path d="M75.2923 87.573C74.7973 87.573 74.3522 87.4587 73.9558 87.2313C73.5593 87.0039 73.2475 86.6738 73.0168 86.2411C72.7873 85.8085 72.6714 85.2872 72.6714 84.6749C72.6714 84.0626 72.7862 83.5366 73.0168 83.1028C73.2463 82.6689 73.5593 82.3389 73.9558 82.1115C74.351 81.8841 74.7973 81.7698 75.2923 81.7698C75.7873 81.7698 76.2359 81.8841 76.63 82.1115C77.0241 82.3389 77.3371 82.6701 77.5666 83.1028C77.7961 83.5366 77.912 84.0603 77.912 84.6749C77.912 85.2895 77.7973 85.8085 77.5666 86.2411C77.3359 86.6738 77.0241 87.0039 76.63 87.2313C76.2359 87.4587 75.7896 87.573 75.2923 87.573ZM75.2923 86.5455C75.5833 86.5455 75.8383 86.4744 76.055 86.3309C76.273 86.1887 76.441 85.9776 76.5616 85.6977C76.6821 85.4178 76.7424 85.0772 76.7424 84.676C76.7424 84.2749 76.6821 83.9262 76.5616 83.6463C76.441 83.3664 76.2718 83.1553 76.055 83.013C75.8371 82.8707 75.5833 82.7984 75.2923 82.7984C75.0013 82.7984 74.7498 82.8707 74.5307 83.0142C74.3116 83.1588 74.1424 83.3699 74.0218 83.6498C73.9013 83.9297 73.841 84.2714 73.841 84.676C73.841 85.0807 73.9013 85.4178 74.0218 85.6965C74.1424 85.9741 74.3116 86.1852 74.5307 86.3298C74.7498 86.4744 75.0037 86.5455 75.2923 86.5455Z" fill="white"/>
<path d="M80.3184 87.4971V81.8467H81.6004L83.3763 84.7063C83.4667 84.8533 83.5583 85.0119 83.651 85.1845C83.7437 85.3559 83.8388 85.5472 83.9362 85.7571C84.0324 85.967 84.1286 86.2038 84.2248 86.4662H84.1077C84.0903 86.2562 84.0741 86.0323 84.0602 85.7956C84.0463 85.5577 84.0347 85.3302 84.0243 85.1133C84.0138 84.8964 84.0092 84.711 84.0092 84.5594V81.8478H85.1858V87.4983H83.9002L82.2866 84.9046C82.1684 84.7098 82.0594 84.5209 81.9586 84.3378C81.8577 84.1547 81.7534 83.9517 81.6445 83.7313C81.5355 83.5097 81.4057 83.245 81.2538 82.9371H81.401C81.4161 83.21 81.4312 83.4713 81.4462 83.722C81.4613 83.9727 81.4729 84.199 81.4822 84.4031C81.4914 84.6072 81.4949 84.7728 81.4949 84.9022V87.4995H80.3184V87.4971Z" fill="white"/>
<path d="M55.0591 10.2078C57.8434 9.75309 59.7341 7.11364 59.2821 4.31241C58.8302 1.51118 56.2067 -0.391054 53.4225 0.0636497C50.6382 0.518353 48.7475 3.15781 49.1994 5.95903C49.6514 8.76026 52.2749 10.6625 55.0591 10.2078Z" fill="white"/>
<path d="M83.4813 14.5574C85.7051 14.1943 87.2152 12.0862 86.8542 9.84888C86.4932 7.61159 84.3979 6.09231 82.1742 6.45547C79.9504 6.81863 78.4403 8.92672 78.8013 11.164C79.1623 13.4013 81.2576 14.9206 83.4813 14.5574Z" fill="white"/>
<path d="M23.8263 14.5594C26.05 14.1962 27.5601 12.0881 27.1992 9.85084C26.8382 7.61354 24.7429 6.09426 22.5191 6.45742C20.2954 6.82059 18.7853 8.92868 19.1463 11.166C19.5072 13.4033 21.6025 14.9225 23.8263 14.5594Z" fill="white"/>
<path d="M30.3287 26.5658C28.8739 25.5045 27.535 24.3977 26.1684 23.3481C24.8087 22.2927 23.442 21.2804 22.0359 20.3509C20.6287 19.4237 19.1855 18.5758 17.6635 17.8691C16.1403 17.153 14.5441 16.6026 12.7996 16.1711C14.5546 15.75 16.4336 15.9017 18.1944 16.374C19.9621 16.8545 21.6267 17.6627 23.1383 18.6645C24.651 19.6674 26.02 20.8617 27.2325 22.183C28.438 23.5125 29.5115 24.9563 30.3287 26.5658Z" fill="white"/>
<path d="M93.2003 16.1698C90.176 16.5932 87.4786 17.876 85.0918 19.5426C82.7005 21.2138 80.5873 23.2617 78.6596 25.4601C77.6974 26.561 76.7852 27.7098 75.9204 28.8842C75.4904 29.4708 75.0777 30.0772 74.6882 30.665L74.3833 31.1409L74.0472 31.6423C73.8235 31.9724 73.5939 32.2943 73.3621 32.6138C72.4348 33.8909 71.4274 35.0979 70.3691 36.2677C69.2992 37.4269 68.1643 38.5313 66.9576 39.5704C65.7382 40.5956 64.4445 41.5507 63.0616 42.3939C61.6706 43.2231 60.1938 43.952 58.6185 44.4768C57.042 44.9888 55.3716 45.3177 53.6792 45.3317C52.8342 45.3608 51.988 45.2815 51.1615 45.1614C50.3327 45.0354 49.5271 44.8244 48.7423 44.5795C47.954 44.3392 47.2029 44.015 46.4715 43.6709C45.7389 43.3257 45.0387 42.9339 44.3652 42.507C43.0148 41.6604 41.7745 40.6819 40.6269 39.6276C39.4793 38.5698 38.4256 37.4327 37.453 36.2385C36.4793 35.0454 35.596 33.7882 34.802 32.482C37.0241 34.5696 39.3124 36.5301 41.7687 38.164C44.2134 39.7932 46.8296 41.1157 49.5224 41.7082C50.1936 41.8516 50.8659 41.9671 51.5371 42.0067C52.2071 42.0475 52.8724 42.072 53.5343 41.9974C54.8558 41.8808 56.168 41.5764 57.4373 41.0901C58.7066 40.6002 59.9411 39.9658 61.12 39.2077C62.307 38.4637 63.4442 37.6088 64.5315 36.6805C65.6281 35.7603 66.6667 34.755 67.6694 33.7101C68.6779 32.6698 69.6272 31.563 70.5383 30.4341C70.7644 30.1519 70.9893 29.8673 71.2049 29.5804L71.5225 29.1536L71.854 28.6883C72.327 28.0317 72.8208 27.424 73.325 26.8211C73.8316 26.2205 74.3486 25.6315 74.8841 25.0612C75.4231 24.4933 75.9749 23.9381 76.5406 23.397C77.1063 22.8559 77.6928 22.3369 78.2944 21.8331C78.8937 21.3281 79.5081 20.8418 80.1468 20.3846C81.4149 19.4621 82.7538 18.6294 84.168 17.9413C85.5822 17.2579 87.0671 16.7098 88.596 16.3879C90.1215 16.0602 91.691 15.9692 93.2015 16.1698H93.2003Z" fill="white"/>
<path d="M74.8818 32.334C76.3667 33.5189 77.752 34.7318 79.1673 35.8875C80.5757 37.0468 81.9969 38.1582 83.4667 39.1798C84.9354 40.2003 86.4528 41.1274 88.0582 41.8937C89.6648 42.6669 91.3526 43.2617 93.2003 43.6885C91.3422 44.1084 89.353 43.9206 87.5007 43.3795C85.6413 42.8325 83.8979 41.938 82.3261 40.8405C80.7508 39.7431 79.3308 38.4498 78.0754 37.0269C76.8258 35.5983 75.7211 34.0472 74.8818 32.3352V32.334Z" fill="white"/>
<path d="M12.7996 43.6873C15.8412 43.2628 18.5537 41.9694 20.9521 40.29C23.3527 38.6001 25.4775 36.5417 27.4099 34.3247C28.3766 33.2156 29.2912 32.0575 30.156 30.8738C30.5848 30.2837 31.0033 29.6702 31.3847 29.0836L31.7058 28.5856L32.0443 28.0853C32.2715 27.7553 32.5021 27.4322 32.7363 27.1127C34.6223 24.5668 36.761 22.2168 39.2115 20.1455C40.4437 19.1204 41.7524 18.1676 43.1527 17.3291C44.5588 16.5045 46.0576 15.7873 47.6561 15.2916C49.2511 14.7983 50.9389 14.4951 52.6429 14.5138C53.4926 14.5138 54.3422 14.5896 55.1687 14.7412C55.9964 14.8893 56.8055 15.1027 57.5868 15.3721C58.3715 15.6322 59.125 15.9587 59.8507 16.3238C60.5786 16.6841 61.2811 17.083 61.9488 17.525C63.2946 18.3927 64.5268 19.3933 65.6697 20.4651C67.9464 22.6203 69.8857 25.0612 71.4622 27.7028C69.2481 25.5814 66.9645 23.5883 64.5117 21.9159C62.0705 20.2482 59.4554 18.8778 56.7545 18.2282C56.0822 18.0591 55.4052 17.946 54.7306 17.8877C54.0571 17.8177 53.3859 17.8002 52.7205 17.8515C51.391 17.9425 50.0683 18.2271 48.7886 18.6982C47.5066 19.1624 46.257 19.7828 45.0676 20.5362C43.8702 21.2745 42.7215 22.1258 41.6226 23.053C40.5132 23.9673 39.4642 24.9738 38.4534 26.0222C37.4333 27.0625 36.4758 28.1739 35.5543 29.3052C35.3259 29.5886 35.0987 29.8743 34.8796 30.1624L34.5562 30.5927L34.2363 31.0406C33.7598 31.7111 33.266 32.3188 32.7595 32.9299C32.2517 33.5351 31.7348 34.1299 31.1969 34.7061C30.6544 35.2775 30.1049 35.8408 29.5346 36.3843C28.9701 36.9324 28.3778 37.4537 27.7762 37.9622C27.1722 38.4683 26.5602 38.9652 25.9168 39.4235C24.6429 40.353 23.3006 41.1962 21.8806 41.8913C20.4606 42.5817 18.9687 43.1368 17.4316 43.4634C15.898 43.7957 14.3192 43.8902 12.8007 43.6896L12.7996 43.6873Z" fill="white"/>
<path d="M42.1837 27.7878C42.1837 27.4033 41.8741 27.0916 41.4922 27.0916C41.1104 27.0916 40.8008 27.4033 40.8008 27.7878V31.1617C40.8008 31.5463 41.1104 31.858 41.4922 31.858C41.8741 31.858 42.1837 31.5463 42.1837 31.1617V27.7878Z" fill="white"/>
<path d="M65.1993 27.7878C65.1993 27.4033 64.8897 27.0916 64.5079 27.0916C64.126 27.0916 63.8164 27.4033 63.8164 27.7878V31.1617C63.8164 31.5463 64.126 31.858 64.5079 31.858C64.8897 31.858 65.1993 31.5463 65.1993 31.1617V27.7878Z" fill="white"/>
<path d="M47.9378 24.2775C47.9378 23.893 47.6283 23.5813 47.2464 23.5813C46.8645 23.5813 46.5549 23.893 46.5549 24.2775V34.6723C46.5549 35.0568 46.8645 35.3685 47.2464 35.3685C47.6283 35.3685 47.9378 35.0568 47.9378 34.6723V24.2775Z" fill="white"/>
<path d="M59.4449 24.2775C59.4449 23.893 59.1353 23.5813 58.7535 23.5813C58.3716 23.5813 58.062 23.893 58.062 24.2775V34.6723C58.062 35.0568 58.3716 35.3685 58.7535 35.3685C59.1353 35.3685 59.4449 35.0568 59.4449 34.6723V24.2775Z" fill="white"/>
<path d="M53.6908 23.6955C53.6908 23.311 53.3812 22.9993 52.9993 22.9993C52.6174 22.9993 52.3079 23.311 52.3079 23.6955V35.2553C52.3079 35.6398 52.6174 35.9515 52.9993 35.9515C53.3812 35.9515 53.6908 35.6398 53.6908 35.2553V23.6955Z" fill="white"/>
</g>
<defs>
<clipPath id="clip0_2_1923">
<rect width="106" height="90" fill="white"/>
</clipPath>
</defs>
</svg>
