<svg width="193" height="70" viewBox="0 0 193 70" fill="none" xmlns="http://www.w3.org/2000/svg">
<rect width="193" height="70" fill="white"/>
<g clip-path="url(#clip0_440_471)">
<path d="M78.6279 35.0378V21.6401H87.8167V23.9152H81.4889V27.6551H87.1987V29.8934H81.4889V35.0361H78.6297L78.6279 35.0378Z" fill="#355C7D"/>
<path d="M96.0297 35.2169C94.7991 35.2169 93.6906 34.9474 92.7061 34.4083C91.7216 33.8693 90.9431 33.0858 90.3705 32.0613C89.798 31.0367 89.5134 29.7979 89.5134 28.3481C89.5134 26.8984 89.7997 25.6495 90.3705 24.6216C90.9431 23.5938 91.7198 22.8103 92.7061 22.2712C93.6906 21.7322 94.7991 21.4626 96.0297 21.4626C97.2603 21.4626 98.3775 21.7322 99.3585 22.2712C100.34 22.8103 101.116 23.5938 101.689 24.6216C102.261 25.6495 102.546 26.8917 102.546 28.3481C102.546 29.8046 102.26 31.0367 101.689 32.0613C101.116 33.0858 100.34 33.8693 99.3585 34.4083C98.3775 34.9474 97.2673 35.2169 96.0297 35.2169ZM96.0297 32.7811C96.7541 32.7811 97.3877 32.612 97.9289 32.2739C98.47 31.9357 98.8907 31.4352 99.1892 30.7722C99.4894 30.1093 99.6395 29.3024 99.6395 28.3498C99.6395 27.3973 99.4894 26.5703 99.1892 25.909C98.8889 25.2461 98.4683 24.7455 97.9289 24.4074C97.3877 24.0692 96.7558 23.9001 96.0297 23.9001C95.3035 23.9001 94.6804 24.0709 94.1357 24.4124C93.5911 24.7539 93.1704 25.2561 92.8702 25.9191C92.5699 26.582 92.4198 27.3922 92.4198 28.3515C92.4198 29.3107 92.5699 30.111 92.8702 30.7705C93.1704 31.4301 93.5929 31.9307 94.1357 32.2722C94.6786 32.6137 95.3105 32.7845 96.0297 32.7845V32.7811Z" fill="#355C7D"/>
<path d="M104.693 35.0378V21.6401H110.141C111.204 21.6401 112.106 21.8193 112.85 22.1792C113.594 22.5391 114.161 23.0447 114.552 23.6993C114.943 24.3522 115.138 25.1206 115.138 26.0011C115.138 26.8817 114.939 27.6417 114.543 28.2812C114.147 28.919 113.571 29.4079 112.819 29.746C112.066 30.0842 111.152 30.255 110.076 30.255H106.383V28.0335H109.617C110.205 28.0335 110.685 27.9565 111.061 27.8041C111.436 27.6518 111.717 27.4241 111.904 27.1211C112.091 26.8181 112.185 26.4448 112.185 26.0011C112.185 25.5575 112.091 25.1641 111.904 24.8544C111.717 24.5463 111.434 24.3103 111.056 24.1479C110.677 23.9855 110.195 23.9052 109.607 23.9052H107.554V35.0361H104.695L104.693 35.0378ZM112.466 35.0378L109.062 28.9408H112.166L115.634 35.0378H112.466Z" fill="#355C7D"/>
<path d="M121.044 35.0378L125.816 21.6401H129.566L134.46 35.0378H131.282L129.04 28.5725C128.771 27.7388 128.497 26.8264 128.22 25.8354C127.942 24.8427 127.649 23.7595 127.344 22.5843H127.972C127.672 23.7645 127.392 24.8544 127.132 25.8521C126.872 26.8499 126.616 27.7572 126.359 28.5725L124.203 35.0378H121.044ZM124.025 31.9257V29.7762H131.479V31.9257H124.025Z" fill="#355C7D"/>
<path d="M146.836 35.2169C145.599 35.2169 144.49 34.9474 143.513 34.4083C142.535 33.8693 141.762 33.0858 141.196 32.0613C140.631 31.0367 140.348 29.7979 140.348 28.3481C140.348 26.8984 140.633 25.6495 141.202 24.6216C141.771 23.5938 142.546 22.8103 143.527 22.2712C144.508 21.7322 145.611 21.4626 146.836 21.4626C147.631 21.4626 148.369 21.5698 149.053 21.7824C149.738 21.995 150.345 22.3047 150.877 22.7132C151.408 23.1217 151.843 23.6205 152.181 24.2098C152.518 24.8008 152.74 25.4737 152.847 26.2288H149.949C149.886 25.8571 149.766 25.529 149.588 25.2444C149.409 24.9598 149.188 24.7171 148.922 24.5162C148.657 24.3153 148.352 24.1629 148.008 24.0575C147.664 23.952 147.292 23.9001 146.892 23.9001C146.168 23.9001 145.531 24.0742 144.984 24.4224C144.438 24.7706 144.012 25.2745 143.71 25.9375C143.406 26.6004 143.255 27.404 143.255 28.3515C143.255 29.299 143.408 30.1294 143.714 30.789C144.019 31.4485 144.445 31.9458 144.988 32.2822C145.533 32.6187 146.163 32.7861 146.882 32.7861C147.282 32.7861 147.652 32.7342 147.992 32.6288C148.332 32.5233 148.64 32.371 148.91 32.1701C149.183 31.9692 149.408 31.7248 149.586 31.4368C149.764 31.1489 149.888 30.8224 149.956 30.4575H152.853C152.778 31.0802 152.586 31.6779 152.277 32.2471C151.968 32.8163 151.557 33.3269 151.045 33.7755C150.532 34.2259 149.923 34.5791 149.217 34.8369C148.51 35.0947 147.718 35.2236 146.836 35.2236V35.2169Z" fill="#355C7D"/>
<path d="M160.693 35.227C159.543 35.227 158.535 35.0211 157.67 34.6109C156.804 34.2008 156.132 33.6299 155.653 32.8983C155.175 32.1668 154.936 31.313 154.936 30.3353V21.6401H157.795V30.111C157.795 30.6333 157.916 31.0954 158.157 31.5005C158.398 31.9056 158.734 32.222 159.169 32.453C159.604 32.6841 160.112 32.7996 160.693 32.7996C161.274 32.7996 161.791 32.6841 162.226 32.453C162.66 32.222 162.997 31.9039 163.238 31.5005C163.479 31.0954 163.599 30.6333 163.599 30.111V21.6401H166.469V30.3353C166.469 31.313 166.228 32.1668 165.746 32.8983C165.265 33.6299 164.591 34.2008 163.727 34.6109C162.861 35.0211 161.85 35.227 160.693 35.227Z" fill="#355C7D"/>
<path d="M168.991 35.0378V21.6401H174.439C175.502 21.6401 176.405 21.8193 177.149 22.1792C177.892 22.5391 178.459 23.0447 178.85 23.6993C179.242 24.3522 179.437 25.1206 179.437 26.0011C179.437 26.8817 179.238 27.6417 178.842 28.2812C178.446 28.919 177.869 29.4079 177.117 29.746C176.365 30.0842 175.45 30.255 174.375 30.255H170.681V28.0335H173.916C174.504 28.0335 174.984 27.9565 175.359 27.8041C175.735 27.6518 176.016 27.4241 176.202 27.1211C176.389 26.8181 176.483 26.4448 176.483 26.0011C176.483 25.5575 176.389 25.1641 176.202 24.8544C176.016 24.5463 175.733 24.3103 175.354 24.1479C174.975 23.9855 174.494 23.9052 173.905 23.9052H171.852V35.0361H168.993L168.991 35.0378ZM176.765 35.0378L173.361 28.9408H176.464L179.933 35.0378H176.765Z" fill="#355C7D"/>
<path d="M181.602 35.0378V21.6401H190.949V23.9152H184.461V27.1529H190.462V29.3911H184.461V32.7627H190.968V35.0378H181.602Z" fill="#355C7D"/>
<path d="M94.6523 47.9014V41.2034H99.2467V42.3401H96.082V44.21H98.9377V45.33H96.082V47.9014H94.6523Z" fill="#FFA07A"/>
<path d="M105.274 47.9918C104.658 47.9918 104.105 47.8579 103.612 47.5867C103.12 47.3172 102.731 46.9255 102.445 46.4132C102.158 45.9009 102.015 45.2815 102.015 44.5566C102.015 43.8317 102.158 43.2073 102.445 42.6934C102.731 42.1794 103.12 41.7877 103.612 41.5182C104.105 41.2486 104.658 41.113 105.274 41.113C105.89 41.113 106.447 41.247 106.938 41.5182C107.428 41.7894 107.817 42.1794 108.102 42.6934C108.388 43.2073 108.531 43.8284 108.531 44.5566C108.531 45.2849 108.388 45.9009 108.102 46.4132C107.816 46.9255 107.428 47.3172 106.938 47.5867C106.447 47.8562 105.892 47.9918 105.274 47.9918ZM105.274 46.7731C105.637 46.7731 105.953 46.6877 106.224 46.5187C106.494 46.3496 106.704 46.0985 106.854 45.7687C107.004 45.4389 107.079 45.0337 107.079 44.5566C107.079 44.0795 107.004 43.6677 106.854 43.3362C106.704 43.0048 106.494 42.7553 106.224 42.5862C105.953 42.4171 105.637 42.3318 105.274 42.3318C104.911 42.3318 104.599 42.4171 104.326 42.5879C104.054 42.7587 103.843 43.0098 103.694 43.3412C103.546 43.6727 103.469 44.0778 103.469 44.5566C103.469 45.0354 103.544 45.4372 103.694 45.7653C103.845 46.0934 104.056 46.3445 104.326 46.5153C104.599 46.6861 104.915 46.7714 105.274 46.7714V46.7731Z" fill="#FFA07A"/>
<path d="M114.404 47.9968C113.829 47.9968 113.325 47.8947 112.892 47.6888C112.459 47.4829 112.124 47.1983 111.885 46.8316C111.646 46.465 111.527 46.0381 111.527 45.551V41.2034H112.956V45.4388C112.956 45.7 113.016 45.931 113.136 46.1335C113.257 46.3361 113.426 46.4951 113.643 46.6107C113.859 46.7262 114.114 46.7831 114.404 46.7831C114.693 46.7831 114.953 46.7262 115.17 46.6107C115.386 46.4951 115.556 46.3361 115.676 46.1335C115.797 45.931 115.856 45.7 115.856 45.4388V41.2034H117.291V45.551C117.291 46.0398 117.17 46.4667 116.929 46.8316C116.689 47.1966 116.352 47.4829 115.919 47.6888C115.486 47.8947 114.98 47.9968 114.402 47.9968H114.404Z" fill="#FFA07A"/>
<path d="M120.473 47.9014V41.2034H122.067L124.275 44.5934C124.387 44.7675 124.502 44.9567 124.617 45.1592C124.732 45.3635 124.851 45.5895 124.971 45.8372C125.092 46.0867 125.21 46.3662 125.329 46.6776H125.184C125.163 46.4282 125.142 46.1637 125.125 45.8824C125.107 45.6012 125.093 45.3317 125.081 45.0738C125.069 44.816 125.062 44.5967 125.062 44.4176V41.2034H126.525V47.9014H124.926L122.92 44.8261C122.774 44.5951 122.637 44.3707 122.512 44.1548C122.386 43.9371 122.257 43.6978 122.121 43.4349C121.985 43.1721 121.822 42.859 121.635 42.4924H121.819C121.838 42.8155 121.855 43.1269 121.875 43.4232C121.894 43.7195 121.908 43.989 121.918 44.2301C121.929 44.4712 121.934 44.6687 121.934 44.8211V47.9014H120.471H120.473Z" fill="#FFA07A"/>
<path d="M131.14 41.2034V47.9014H129.711V41.2034H131.14ZM132.167 47.9014H130.357V46.7195H132.095C132.546 46.7195 132.923 46.6425 133.228 46.4901C133.534 46.3378 133.762 46.1001 133.914 45.7803C134.066 45.4606 134.144 45.0487 134.144 44.5482C134.144 44.0476 134.068 43.6425 133.912 43.3228C133.757 43.003 133.53 42.767 133.228 42.6146C132.926 42.4623 132.552 42.3853 132.106 42.3853H130.323V41.2034H132.189C132.889 41.2034 133.492 41.3373 133.996 41.6051C134.501 41.873 134.89 42.2564 135.16 42.7569C135.433 43.2558 135.569 43.8534 135.569 44.5482C135.569 45.2429 135.433 45.8456 135.16 46.3462C134.888 46.8467 134.499 47.2317 133.991 47.4996C133.483 47.7674 132.874 47.9014 132.165 47.9014H132.167Z" fill="#FFA07A"/>
<path d="M137.758 47.9014L140.144 41.2034H142.019L144.466 47.9014H142.878L141.757 44.6687C141.623 44.2519 141.486 43.7965 141.347 43.2993C141.207 42.8038 141.062 42.2614 140.909 41.6738H141.223C141.073 42.2647 140.933 42.8088 140.804 43.3077C140.675 43.8066 140.546 44.2602 140.416 44.667L139.338 47.8997H137.758V47.9014ZM139.249 46.3462V45.2714H142.975V46.3462H139.249Z" fill="#FFA07A"/>
<path d="M146.114 42.3401V41.2034H151.818V42.3401H149.685V47.9014H148.25V42.3401H146.112H146.114Z" fill="#FFA07A"/>
<path d="M156.154 41.2034V47.9014H154.725V41.2034H156.154Z" fill="#FFA07A"/>
<path d="M162.405 47.9918C161.789 47.9918 161.236 47.8579 160.743 47.5867C160.251 47.3172 159.862 46.9255 159.576 46.4132C159.289 45.9009 159.146 45.2815 159.146 44.5566C159.146 43.8317 159.289 43.2073 159.576 42.6934C159.862 42.1794 160.251 41.7877 160.743 41.5182C161.236 41.2486 161.789 41.113 162.405 41.113C163.021 41.113 163.578 41.247 164.069 41.5182C164.559 41.7894 164.949 42.1794 165.233 42.6934C165.519 43.2073 165.662 43.8284 165.662 44.5566C165.662 45.2849 165.519 45.9009 165.233 46.4132C164.947 46.9255 164.559 47.3172 164.069 47.5867C163.578 47.8562 163.023 47.9918 162.405 47.9918ZM162.405 46.7731C162.768 46.7731 163.084 46.6877 163.355 46.5187C163.625 46.3496 163.835 46.0985 163.985 45.7687C164.135 45.4389 164.21 45.0337 164.21 44.5566C164.21 44.0795 164.135 43.6677 163.985 43.3362C163.835 43.0048 163.625 42.7553 163.355 42.5862C163.084 42.4171 162.768 42.3318 162.405 42.3318C162.042 42.3318 161.73 42.4171 161.457 42.5879C161.185 42.7587 160.974 43.0098 160.825 43.3412C160.677 43.6727 160.6 44.0778 160.6 44.5566C160.6 45.0354 160.675 45.4372 160.825 45.7653C160.976 46.0934 161.187 46.3445 161.457 46.5153C161.73 46.6861 162.046 46.7714 162.405 46.7714V46.7731Z" fill="#FFA07A"/>
<path d="M168.656 47.9014V41.2034H170.25L172.458 44.5934C172.57 44.7675 172.685 44.9567 172.8 45.1592C172.916 45.3635 173.034 45.5895 173.155 45.8372C173.275 46.0867 173.394 46.3662 173.512 46.6776H173.368C173.347 46.4282 173.326 46.1637 173.308 45.8824C173.291 45.6012 173.277 45.3317 173.265 45.0738C173.252 44.816 173.245 44.5967 173.245 44.4176V41.2034H174.708V47.9014H173.109L171.104 44.8261C170.957 44.5951 170.821 44.3707 170.695 44.1548C170.569 43.9371 170.44 43.6978 170.304 43.4349C170.168 43.1721 170.006 42.859 169.819 42.4924H170.002C170.021 42.8155 170.039 43.1269 170.058 43.4232C170.077 43.7195 170.091 43.989 170.102 44.2301C170.112 44.4712 170.117 44.6687 170.117 44.8211V47.9014H168.655H168.656Z" fill="#FFA07A"/>
<path d="M37.1578 24.5578C39.6063 24.1766 41.2689 21.964 40.8715 19.6158C40.4741 17.2676 38.167 15.6731 35.7185 16.0542C33.27 16.4354 31.6073 18.648 32.0048 20.9961C32.4022 23.3443 34.7093 24.9389 37.1578 24.5578Z" fill="#355C7D"/>
<path d="M62.1491 28.202C64.1046 27.8976 65.4326 26.1305 65.1151 24.255C64.7977 22.3796 62.9551 21.106 60.9996 21.4105C59.044 21.7149 57.7161 23.482 58.0335 25.3575C58.3509 27.2329 60.1935 28.5065 62.1491 28.202Z" fill="#A8E6CF"/>
<path d="M9.69644 28.2047C11.652 27.9003 12.9799 26.1332 12.6625 24.2577C12.3451 22.3823 10.5025 21.1087 8.54693 21.4131C6.59138 21.7176 5.26343 23.4847 5.58086 25.3601C5.89829 27.2356 7.7409 28.5092 9.69644 28.2047Z" fill="#FFA07A"/>
<path d="M15.4135 38.2654C14.134 37.3764 12.9575 36.4473 11.7547 35.5684C10.559 34.6845 9.35806 33.8358 8.12219 33.0573C6.88457 32.2805 5.61554 31.5707 4.27667 30.9764C2.93781 30.3771 1.53437 29.915 0 29.5534C1.54309 29.2002 3.19441 29.3274 4.74274 29.7242C6.29631 30.1277 7.76086 30.804 9.08924 31.6444C10.4194 32.4848 11.6221 33.4859 12.6886 34.5941C13.7482 35.7074 14.6926 36.9177 15.4117 38.267L15.4135 38.2654Z" fill="#FFA07A"/>
<path d="M70.6944 29.5533C68.0359 29.9082 65.6637 30.983 63.5637 32.3792C61.4603 33.7804 59.603 35.4963 57.908 37.3378C57.0614 38.2602 56.2602 39.2228 55.5009 40.2072C55.1238 40.6994 54.7608 41.2066 54.4186 41.7005L54.1498 42.0989L53.8548 42.5191C53.6575 42.7953 53.4568 43.0648 53.2526 43.3327C52.4374 44.4024 51.5506 45.4152 50.622 46.3946C49.6811 47.3656 48.6844 48.293 47.6213 49.1635C46.5495 50.0223 45.4114 50.8242 44.1947 51.5307C42.9711 52.2254 41.6724 52.8365 40.2881 53.2767C38.9021 53.7053 37.4341 53.9815 35.9451 53.9932C35.2015 54.0184 34.4579 53.9514 33.7317 53.851C33.0021 53.7455 32.2951 53.568 31.6039 53.3638C30.9109 53.1612 30.251 52.8917 29.6069 52.6021C28.9628 52.3125 28.3466 51.9843 27.7549 51.6261C26.5679 50.9163 25.4769 50.096 24.4679 49.2121C23.459 48.3265 22.5321 47.3723 21.6785 46.3711C20.8232 45.3717 20.0446 44.3171 19.3481 43.2222C21.3015 44.9716 23.3141 46.6156 25.4734 47.985C27.6222 49.3493 29.9246 50.4593 32.2916 50.9565C32.8816 51.077 33.4734 51.1724 34.0634 51.2059C34.6534 51.2411 35.2382 51.2611 35.8195 51.1975C36.982 51.1004 38.1358 50.8443 39.2513 50.4375C40.3667 50.0273 41.4524 49.495 42.4893 48.8605C43.5332 48.2361 44.5334 47.5196 45.49 46.7428C46.4535 45.971 47.3682 45.129 48.2497 44.2534C49.1365 43.3812 49.9709 42.4538 50.7721 41.5079C50.9711 41.2702 51.1684 41.0325 51.3586 40.7931L51.6379 40.4349L51.9294 40.0448C52.3449 39.494 52.7795 38.9851 53.2229 38.4795C53.668 37.9756 54.1219 37.4834 54.5932 37.0047C55.0662 36.5275 55.5532 36.0638 56.049 35.6101C56.5465 35.1565 57.0632 34.7212 57.5903 34.2993C58.1175 33.8758 58.6569 33.4673 59.219 33.0856C60.3344 32.3122 61.5109 31.6141 62.7555 31.0382C63.9984 30.4657 65.3041 30.0053 66.6482 29.7358C67.9888 29.4612 69.3695 29.3842 70.6979 29.5533H70.6944Z" fill="#A8E6CF"/>
<path d="M54.5879 43.1001C55.8936 44.0928 57.112 45.109 58.3566 46.0783C59.596 47.0493 60.8441 47.9817 62.1358 48.8372C63.4276 49.6926 64.7612 50.4694 66.1734 51.1123C67.5855 51.7601 69.0693 52.259 70.6944 52.6173C69.0605 52.9688 67.3115 52.8114 65.6828 52.3578C64.0472 51.8991 62.5146 51.1491 61.1321 50.23C59.7461 49.3109 58.4998 48.2261 57.3948 47.0325C56.2951 45.8355 55.3246 44.5348 54.5862 43.1001H54.5879Z" fill="#E6E6FA"/>
<path d="M0 52.6173C2.67423 52.2624 5.05869 51.1775 7.1691 49.7696C9.27951 48.3534 11.149 46.6274 12.8475 44.7692C13.6976 43.84 14.5023 42.8691 15.2616 41.8763C15.6387 41.3808 16.007 40.8669 16.3421 40.3764L16.6249 39.9595L16.9217 39.541C17.1207 39.2648 17.3249 38.9936 17.5291 38.7257C19.1874 36.5929 21.0674 34.6225 23.2232 32.8865C24.3072 32.0277 25.4576 31.2292 26.6882 30.5261C27.9241 29.8347 29.242 29.2337 30.6472 28.8185C32.0489 28.405 33.5344 28.1505 35.0321 28.1673C35.7792 28.1673 36.5263 28.2309 37.2542 28.3581C37.9821 28.482 38.6943 28.6611 39.3803 28.8871C40.0698 29.1048 40.7331 29.3793 41.3703 29.6857C42.0109 29.9887 42.6271 30.3218 43.2154 30.6918C44.3989 31.4184 45.4811 32.2571 46.4866 33.156C48.4888 34.9624 50.1942 37.0081 51.5802 39.2229C49.6339 37.445 47.6247 35.7743 45.4689 34.3731C43.3218 32.9752 41.0229 31.8268 38.6472 31.2827C38.0572 31.1421 37.4602 31.0467 36.8684 30.9965C36.2767 30.9379 35.6867 30.9228 35.1019 30.9663C33.9324 31.0434 32.7698 31.2811 31.6439 31.6762C30.5163 32.0645 29.4183 32.5852 28.3727 33.2163C27.3201 33.8341 26.3094 34.5489 25.3441 35.3257C24.3683 36.0924 23.4466 36.9361 22.5581 37.815C21.6609 38.6872 20.8195 39.618 20.0096 40.5672C19.8089 40.8049 19.6099 41.0443 19.4161 41.2854L19.1316 41.647L18.8505 42.022C18.4316 42.5845 17.9969 43.0934 17.5518 43.6057C17.105 44.1129 16.6511 44.6118 16.178 45.0939C15.7015 45.5727 15.218 46.0448 14.717 46.5002C14.2195 46.9589 13.6993 47.3958 13.1704 47.8227C12.6398 48.2462 12.1021 48.6631 11.5348 49.0464C10.4141 49.8266 9.23413 50.533 7.98603 51.1156C6.73794 51.6948 5.42527 52.1602 4.07419 52.4331C2.7266 52.7127 1.33712 52.7914 0.00174558 52.6223L0 52.6173Z" fill="#355C7D"/>
<path d="M25.2305 38.7073H25.2288C24.8933 38.7073 24.6213 38.9681 24.6213 39.2899V42.1191C24.6213 42.4408 24.8933 42.7016 25.2288 42.7016H25.2305C25.566 42.7016 25.838 42.4408 25.838 42.1191V39.2899C25.838 38.9681 25.566 38.7073 25.2305 38.7073Z" fill="#355C7D"/>
<path d="M45.4671 38.7073H45.4654C45.1299 38.7073 44.8579 38.9681 44.8579 39.2899V42.1191C44.8579 42.4408 45.1299 42.7016 45.4654 42.7016H45.4671C45.8026 42.7016 46.0746 42.4408 46.0746 42.1191V39.2899C46.0746 38.9681 45.8026 38.7073 45.4671 38.7073Z" fill="#355C7D"/>
<path d="M30.2891 35.7642H30.2874C29.9519 35.7642 29.6799 36.025 29.6799 36.3467V45.062C29.6799 45.3838 29.9519 45.6446 30.2874 45.6446H30.2891C30.6246 45.6446 30.8966 45.3838 30.8966 45.062V36.3467C30.8966 36.025 30.6246 35.7642 30.2891 35.7642Z" fill="#355C7D"/>
<path d="M40.4066 35.7642H40.4048C40.0693 35.7642 39.7974 36.025 39.7974 36.3467V45.062C39.7974 45.3838 40.0693 45.6446 40.4048 45.6446H40.4066C40.7421 45.6446 41.014 45.3838 41.014 45.062V36.3467C41.014 36.025 40.7421 35.7642 40.4066 35.7642Z" fill="#355C7D"/>
<path d="M35.348 35.2771H35.3462C35.0107 35.2771 34.7388 35.5379 34.7388 35.8597V45.5509C34.7388 45.8727 35.0107 46.1335 35.3462 46.1335H35.348C35.6835 46.1335 35.9554 45.8727 35.9554 45.5509V35.8597C35.9554 35.5379 35.6835 35.2771 35.348 35.2771Z" fill="#355C7D"/>
</g>
<defs>
<clipPath id="clip0_440_471">
<rect width="192" height="38" fill="white" transform="translate(0 16)"/>
</clipPath>
</defs>
</svg>
