<svg width="122" height="99" viewBox="0 0 122 99" fill="none" xmlns="http://www.w3.org/2000/svg">
<g clip-path="url(#clip0_555_1994)">
<path d="M113.132 98.9999H8.86807C4.49236 98.9999 0.932617 95.4168 0.932617 91.0123V23.7056C0.932617 19.3011 4.49236 15.718 8.86807 15.718H113.134C117.509 15.718 121.069 19.3011 121.069 23.7056V91.0123C121.069 95.4168 117.509 98.9999 113.134 98.9999H113.132ZM8.61943 18.6772C5.95268 18.6772 3.78146 20.861 3.78146 23.547V91.1726C3.78146 93.8569 5.95093 96.0424 8.61943 96.0424H113.381C116.047 96.0424 118.219 93.8587 118.219 91.1726V23.547C118.219 20.8627 116.049 18.6772 113.381 18.6772H8.61943Z" fill="#0C4A6E"/>
<path d="M66.9155 81.0329H55.0859C54.2244 81.0329 53.5258 80.3297 53.5258 79.4625V64.8848H39.0434C38.1819 64.8848 37.4833 64.1816 37.4833 63.3145V51.407C37.4833 50.5398 38.1819 49.8366 39.0434 49.8366H53.5258V35.2589C53.5258 34.3917 54.2244 33.6885 55.0859 33.6885H66.9155C67.777 33.6885 68.4756 34.3917 68.4756 35.2589V49.8366H82.958C83.8195 49.8366 84.5181 50.5398 84.5181 51.407V63.3145C84.5181 64.1816 83.8195 64.8848 82.958 64.8848H68.4756V79.4625C68.4756 80.3297 67.777 81.0329 66.9155 81.0329ZM56.6303 77.9644H65.3712V63.3338C65.3712 62.4632 66.0716 61.7582 66.9365 61.7582H81.4714V52.9597H66.9365C66.0716 52.9597 65.3712 52.2547 65.3712 51.384V36.7535H56.6303V51.384C56.6303 52.2547 55.9299 52.9597 55.0649 52.9597H40.53V61.7582H55.0649C55.9299 61.7582 56.6303 62.4632 56.6303 63.3338V77.9644Z" fill="#0C4A6E"/>
<path d="M84.9414 18.6843H37.059C36.1975 18.6843 35.4989 17.9811 35.4989 17.1139V5.06368C35.4989 2.27187 37.7559 0 40.5295 0H81.4709C84.2445 0 86.5015 2.27187 86.5015 5.06368V17.1122C86.5015 17.9793 85.8029 18.6826 84.9414 18.6826V18.6843ZM38.43 15.5947H83.5721V5.02843C83.5721 3.95859 82.7071 3.08967 81.646 3.08967H40.3579C39.295 3.08967 38.4318 3.96035 38.4318 5.02843V15.5964L38.43 15.5947Z" fill="#0C4A6E"/>
</g>
<defs>
<clipPath id="clip0_555_1994">
<rect width="120.135" height="99" fill="white" transform="translate(0.932617)"/>
</clipPath>
</defs>
</svg>
