<svg width="100" height="99" viewBox="0 0 100 99" fill="none" xmlns="http://www.w3.org/2000/svg">
<path d="M33.2653 99.0001C32.8917 99.0001 32.5401 98.8683 32.2544 98.5826C31.705 98.0332 31.705 97.1102 32.2544 96.5609C39.7261 89.0892 36.1001 77.8377 32.2544 65.9489C28.2988 53.7524 24.2113 41.1384 32.9356 32.4361C41.6599 23.7118 54.2519 27.7993 66.4484 31.7549C78.3372 35.6226 89.5887 39.2485 97.0604 31.7549C97.6098 31.2055 98.5327 31.2055 99.0821 31.7549C99.6315 32.3043 99.6315 33.2272 99.0821 33.7766C90.3578 42.5009 77.7438 38.4135 65.5694 34.4579C53.6806 30.6121 42.4291 26.9642 34.9574 34.4579C27.4857 41.9296 31.1116 53.1811 34.9574 65.0698C38.913 77.2663 43.0004 89.8803 34.2761 98.5826C33.9904 98.8683 33.6388 99.0001 33.2653 99.0001Z" fill="#0C4A6E"/>
<path d="M84.1614 25.1181C83.7878 25.1181 83.4362 24.9862 83.1505 24.7006L63.5702 5.12032C63.0209 4.57093 63.0209 3.64796 63.5702 3.09857C64.1196 2.54918 65.0426 2.54918 65.592 3.09857L85.1722 22.6788C85.7216 23.2282 85.7216 24.1512 85.1722 24.7006C84.8866 24.9862 84.535 25.1181 84.1614 25.1181Z" fill="#0C4A6E"/>
<path d="M73.0634 27.4694C72.6898 27.4694 72.3382 27.3375 72.0526 27.0518L61.9218 16.9211C61.3724 16.3717 61.3724 15.4487 61.9218 14.8993C62.4712 14.35 63.3942 14.35 63.9436 14.8993L74.0743 25.0301C74.6237 25.5795 74.6237 26.5025 74.0743 27.0518C73.7886 27.3375 73.437 27.4694 73.0634 27.4694Z" fill="#0C4A6E"/>
<path d="M26.7167 73.8161C26.3432 73.8161 25.9916 73.6842 25.7059 73.3985L15.5751 63.2678C15.0257 62.7184 15.0257 61.7954 15.5751 61.246C16.1245 60.6966 17.0475 60.6966 17.5969 61.246L27.7276 71.3768C28.277 71.9262 28.277 72.8491 27.7276 73.3985C27.4419 73.6842 27.0903 73.8161 26.7167 73.8161Z" fill="#0C4A6E"/>
<path d="M70.7997 54.0162C70.4261 54.0162 70.0745 53.8844 69.7888 53.5987L52.582 36.3918C52.0326 35.8424 52.0326 34.9194 52.582 34.37C53.1314 33.8207 54.0543 33.8207 54.6037 34.37L71.8106 51.5769C72.36 52.1263 72.36 53.0493 71.8106 53.5987C71.5249 53.8844 71.1733 54.0162 70.7997 54.0162Z" fill="#0C4A6E"/>
<path d="M66.0754 67.0038C65.7018 67.0038 65.3502 66.8719 65.0645 66.5862L38.6718 40.1936C38.1224 39.6442 38.1224 38.7212 38.6718 38.1718C39.2212 37.6224 40.1442 37.6224 40.6936 38.1718L67.0862 64.5645C67.6356 65.1139 67.6356 66.0368 67.0862 66.5862C66.8005 66.8719 66.4489 67.0038 66.0754 67.0038Z" fill="#0C4A6E"/>
<path d="M53.0878 71.7501C52.7142 71.7501 52.3626 71.6183 52.0769 71.3326L34.8701 54.1257C34.3207 53.5763 34.3207 52.6533 34.8701 52.1039C35.4194 51.5545 36.3424 51.5545 36.8918 52.1039L54.0987 69.3108C54.6481 69.8602 54.6481 70.7832 54.0987 71.3326C53.813 71.6183 53.4614 71.7501 53.0878 71.7501Z" fill="#0C4A6E"/>
<path d="M24.1897 85.0893C23.8161 85.0893 23.4645 84.9574 23.1788 84.6718L3.59857 65.0915C3.04918 64.5421 3.04918 63.6191 3.59857 63.0698C4.14796 62.5204 5.07093 62.5204 5.62032 63.0698L25.2006 82.65C25.75 83.1994 25.75 84.1224 25.2006 84.6718C24.9149 84.9574 24.5633 85.0893 24.1897 85.0893Z" fill="#0C4A6E"/>
<path d="M53.7912 71.7502C47.4402 71.7502 40.43 69.4867 33.5516 67.2452C21.6629 63.3775 10.4114 59.7515 2.93966 67.2452C2.39027 67.7946 1.46729 67.7946 0.917902 67.2452C0.368512 66.6958 0.368512 65.7728 0.917902 65.2234C9.64221 56.4991 22.2342 60.5866 34.4307 64.5422C46.3195 68.4099 57.571 72.0358 65.0427 64.5422C72.5144 57.0705 68.8884 45.819 65.0427 33.9302C61.0871 21.7337 56.9996 9.11974 65.7239 0.417413C66.2733 -0.131976 67.1963 -0.131976 67.7457 0.417413C68.295 0.966803 68.295 1.88978 67.7457 2.43917C60.274 9.91087 63.8999 21.1624 67.7457 33.0512C71.7013 45.2476 75.7887 57.8616 67.0644 66.5639C63.2626 70.3657 58.7137 71.7282 53.7692 71.7282L53.7912 71.7502Z" fill="#0C4A6E"/>
</svg>
