<svg width="99" height="86" viewBox="0 0 99 86" fill="none" xmlns="http://www.w3.org/2000/svg">
<g clip-path="url(#clip0_2_2020)">
<path d="M68.4802 34.3038H97.4437C97.7916 34.3038 98.7902 35.3864 98.8862 35.7982C99.0541 36.5249 99.0361 42.4055 98.8382 43.0409C98.7062 43.4616 97.5936 44.3882 97.2458 44.3882H94.0819L93.776 45.056L93.77 76.08C93.7011 77.8157 91.065 80.6545 89.3376 80.6545H84.4944V83.661C84.4944 84.4317 83.0009 85.935 82.1343 85.9997L16.719 85.9526C15.9063 85.8585 14.5089 84.3758 14.5089 83.661V80.6545H9.66561C7.93824 80.6545 5.3022 77.8157 5.23322 76.08L5.22723 45.056L4.92134 44.3882H1.75449C1.40662 44.3882 0.29402 43.4616 0.162068 43.0409C-0.0358598 42.4055 -0.0508543 36.5249 0.114086 35.7982C0.210051 35.3864 1.20869 34.3038 1.55656 34.3038H30.52C30.1092 32.9653 29.1885 31.7533 28.6457 30.4207C23.6705 18.2152 30.505 4.37119 43.3734 0.846942C61.3968 -4.08937 77.312 13.3583 70.3575 30.4207C69.8147 31.7533 68.8941 32.9624 68.4832 34.3038H68.4802ZM60.965 34.3038H65.4123C76.8622 19.7567 64.0958 -0.776921 45.5326 2.58553C30.9339 5.22725 24.2133 22.9838 33.5819 34.3038H38.0293L35.6931 31.4562C28.6757 21.6571 34.6975 7.75718 46.6842 5.84797C61.3818 3.50631 71.6321 19.439 63.2981 31.4562L60.962 34.3038H60.965ZM47.2809 7.98076C34.1667 9.42811 30.4091 27.8878 41.9819 34.2126H57.0184C70.3276 25.8697 63.3191 6.21275 47.2809 7.98076ZM96.7509 36.4366H2.24631V42.2554H96.7509V36.4366ZM91.6108 44.3882H7.38644V75.7094C7.38644 76.6566 8.96987 78.2158 9.95051 78.4305C36.3229 78.5217 62.7973 78.707 89.1487 78.3364C90.1174 78.2305 91.6108 76.5566 91.6108 75.7094V44.3882ZM82.1223 80.6545H16.878V83.4668H82.1223V80.6545Z" fill="#0C4A6E"/>
<path d="M19.7928 20.969C20.9893 20.7513 23.8263 20.7984 22.9086 22.6694C22.5338 23.4342 19.9667 23.4077 19.298 23.1077C18.2573 22.637 18.4853 21.2073 19.7928 20.972V20.969Z" fill="#0C4A6E"/>
<path d="M76.9249 20.9631C78.0855 20.7131 81.0724 20.7925 80.1967 22.6193C79.7889 23.4666 77.4108 23.4224 76.637 23.1018C75.5874 22.6693 75.7794 21.2102 76.9249 20.9631Z" fill="#0C4A6E"/>
<path d="M75.2517 28.8265C74.5739 28.1381 75.1647 26.832 76.2683 26.9349C76.6102 26.9673 78.5235 27.9263 78.7724 28.1852C79.6091 29.056 79.0093 30.3621 77.9177 30.2003C77.7288 30.1709 75.3776 28.953 75.2517 28.8265Z" fill="#0C4A6E"/>
<path d="M23.7453 28.8265C23.6223 28.953 21.2712 30.1709 21.0792 30.2003C20.1976 30.3327 19.6188 29.4325 19.8767 28.6206C20.0176 28.1823 22.2338 26.982 22.7286 26.9349C23.8292 26.832 24.423 28.1381 23.7453 28.8265Z" fill="#0C4A6E"/>
<path d="M23.7514 16.9976C23.0107 17.7271 19.1091 16.2004 19.9428 14.5235C20.6116 13.1821 23.9014 15.2855 24.0004 15.9886C24.0363 16.2533 23.9404 16.8123 23.7514 16.9976Z" fill="#0C4A6E"/>
<path d="M75.2485 16.9976C75.0596 16.8123 74.9606 16.2533 74.9996 15.9886C75.0986 15.2825 78.3914 13.1821 79.0571 14.5235C79.8938 16.2004 75.9893 17.7271 75.2485 16.9976Z" fill="#0C4A6E"/>
<path d="M47.4786 48.3217C61.9364 46.7213 68.7559 64.3632 57.474 72.2825C46.516 79.9752 32.0882 69.0965 36.8415 56.6999C38.4639 52.4725 42.8303 48.8365 47.4786 48.3217ZM48.0724 50.4545C40.1793 51.3341 35.7319 60.1506 39.6545 66.9431C44.0389 74.5388 55.3268 74.3917 59.4893 66.6931C63.6518 58.9945 57.1441 49.4425 48.0724 50.4515V50.4545Z" fill="#0C4A6E"/>
<path d="M50.7085 14.1147C50.7715 14.1853 52.007 14.5059 52.4539 14.8266C53.6954 15.7209 55.4738 19.5275 53.1526 19.5775C51.7611 19.607 52.181 18.5126 51.8151 17.5889C50.6965 14.7795 46.0122 16.2563 47.1848 19.4187C47.8685 21.2691 49.8148 20.7484 51.3413 21.3544C54.772 22.7135 55.2938 27.5145 52.2229 29.5061C51.8661 29.7385 50.9004 30.0385 50.7865 30.2297C50.4326 30.821 51.0354 32.6508 49.422 32.5567C47.9855 32.4743 48.5763 30.8151 48.2254 30.2297C48.1324 30.0768 46.8669 29.6002 46.447 29.2589C45.4424 28.447 43.706 25.1316 45.4994 24.6433C47.0738 24.2138 46.8309 25.7141 47.1938 26.5878C48.4593 29.6296 53.1436 27.7351 51.7791 24.608C51.0624 22.9694 49.317 23.3989 47.9285 22.9577C44.0629 21.7339 43.6191 16.3386 47.3227 14.4177C47.6016 14.2735 48.2644 14.1529 48.3004 14.1176C48.4083 13.997 48.1204 11.267 49.7129 11.6936C51.0804 12.0613 50.5346 13.9087 50.7175 14.1176L50.7085 14.1147Z" fill="#0C4A6E"/>
<path d="M45.6915 55.4908C46.2763 55.3996 46.99 55.3937 47.5748 55.4908C48.2915 55.6114 49.1642 56.3439 49.4371 56.3851C49.5751 56.4057 50.8496 55.5879 51.4254 55.4908C55.9747 54.7318 58.8057 59.574 55.8308 63.11C55.279 63.766 50.3458 68.67 49.9529 68.7877C49.5601 68.9053 49.1162 68.8847 48.7953 68.6406C47.3859 66.7255 42.6836 63.5542 42.1198 61.4214C41.433 58.818 42.8665 55.935 45.6915 55.4908ZM46.2913 57.6148C44.8488 57.8119 43.8082 59.2975 44.255 60.686C44.5879 61.4862 49.1912 66.1606 49.5721 66.0959C50.6457 64.7751 54.6162 61.8921 54.8292 60.3742C55.0811 58.5826 53.3207 57.1529 51.5663 57.7619C50.7116 58.059 50.2918 59.0033 49.4011 58.9533C48.5104 58.9033 47.9347 57.3912 46.2913 57.6148Z" fill="#0C4A6E"/>
</g>
<defs>
<clipPath id="clip0_2_2020">
<rect width="99" height="86" fill="white"/>
</clipPath>
</defs>
</svg>
