<svg width="90" height="76" viewBox="0 0 90 76" fill="none" xmlns="http://www.w3.org/2000/svg">
<g clip-path="url(#clip0_2_2007)">
<path d="M57.2638 30.8691C58.2818 30.9805 60.0421 32.7385 60.9018 32.6325L66.4284 30.3176C66.019 28.9264 66.7395 27.3097 68.0577 26.6604C69.3759 26.011 76.8784 23.9514 78.4504 23.7531C80.429 23.5031 81.7609 24.0492 82.4022 25.9974C84.3399 34.4421 87.9506 43.0336 89.7765 51.4349C90.2213 53.4863 90.1449 54.6927 88.2126 55.8637C84.9021 56.4588 81.0595 58.2983 77.8227 58.7738C75.915 59.0536 74.665 58.1597 73.8954 56.4941C71.3927 57.7603 68.7045 58.6026 65.8962 58.9042C65.0201 60.8632 63.489 62.3875 61.2211 62.4011C61.3385 63.4771 61.6823 64.1808 61.535 65.3111C61.0546 68.9819 57.0946 70.7996 53.8469 69.2074C53.6313 73.1635 49.3874 75.253 45.9432 73.2233C45.1544 72.7587 44.7369 72.0006 43.9509 71.7153C43.1567 76.7637 36.9969 77.3343 34.1177 73.5249C31.9944 74.8916 29.2024 73.9596 28.4601 71.5468C26.9236 71.9327 25.7418 72.2261 24.3499 71.2534C22.9581 70.2807 22.243 68.2727 23.0809 66.6995C20.7802 66.2485 19.653 63.8439 20.3817 61.6838C19.1017 61.5697 17.6826 60.1296 17.5188 58.8906C17.3278 57.456 17.8545 56.7957 16.3316 55.7714C15.8104 57.7087 14.5658 59.0672 12.388 58.8009C9.18937 58.4069 5.14474 56.4044 1.84516 55.8637C0.385054 55.0296 -0.302698 53.6846 0.131241 52.0027C3.12515 43.7536 4.5525 34.1052 7.65558 25.9974C8.37062 24.128 9.41862 23.5167 11.4546 23.7286C12.9338 23.8808 20.7065 26.0245 22.0001 26.6631C23.2119 27.2608 24.0716 28.8585 23.6185 30.1573L31.353 29.2606C23.1764 19.2861 27.7205 4.02147 40.3102 0.652271C56.6415 -3.71683 69.4059 14.8872 59.3107 28.3477C58.7539 29.0922 57.8642 29.8068 57.4385 30.4235C57.3348 30.5757 57.1874 30.6001 57.2611 30.8719L57.2638 30.8691ZM52.4059 28.8992C53.1919 28.9291 54.783 30.0268 55.3807 29.6301C56.3795 28.9672 58.2408 26.4647 58.8467 25.3724C65.4377 13.477 54.7147 -0.537819 41.4264 2.47816C30.0348 5.06212 25.2997 19.2046 33.0587 28.008C34.4916 29.6329 35.2939 29.6003 37.289 28.7199C37.3572 28.421 37.1907 28.3585 37.016 28.1874C36.3965 27.5869 35.6433 27.0924 35.0374 26.3941C28.9377 19.3622 31.9016 8.11071 40.7905 5.2496C54.5783 0.809862 64.5507 18.0444 53.4839 27.9156C53.2737 28.1031 52.1493 28.633 52.4031 28.8965L52.4059 28.8992ZM43.3668 6.73857C36.6367 7.49393 32.3382 14.8464 34.3606 21.1582C35.0101 23.1825 37.5755 26.8913 39.6852 27.5162C40.2665 27.6901 41.6611 27.1739 42.4198 27.1114C43.0612 27.0598 43.94 27.0625 44.584 27.1005C45.6894 27.1657 48.8661 28.0651 49.5293 27.9238C51.4698 27.5054 54.2317 24.4432 55.0805 22.6988C59.0787 14.4877 52.3485 5.73053 43.3668 6.73857ZM13.8535 56.4425L21.6371 29.1791L21.3779 28.7145L10.5867 25.6822L9.94535 25.9539L2.03348 52.9863C2.13446 53.6248 2.49744 53.8966 3.06238 54.1139C6.01534 55.2524 9.7625 55.6545 12.7782 56.8147C13.043 56.8365 13.7007 56.6137 13.8563 56.4425H13.8535ZM78.9935 25.7148C77.3751 25.8778 71.0216 27.7064 69.3977 28.3558C68.8928 28.5569 68.4016 28.7063 68.4016 29.3476L76.2452 56.486L77.1458 56.8229L87.1292 54.0705C87.604 53.9074 87.9506 53.4863 88.0216 52.9863L80.3826 26.3914C80.1397 25.7284 79.6321 25.6496 78.9935 25.7148ZM73.2404 54.4835L66.8814 32.3065L60.4542 34.9638C56.4942 32.4423 52.2094 30.6056 47.5807 29.6763C40.5121 28.258 35.8834 30.4806 31.746 36.1919C30.0894 38.4797 27.6413 42.0065 30.8263 44.2074C35.021 47.1065 38.3588 39.5965 41.3718 37.7135C43.8308 36.1756 46.7183 36.3468 48.9889 38.1265C53.6395 43.4846 60.184 48.3184 64.6435 53.7091C65.4349 54.6628 65.9289 55.6083 66.0818 56.85C68.5626 56.399 71.0707 55.8176 73.2404 54.4862V54.4835ZM33.3317 31.2332C29.8711 31.5158 26.3559 31.5674 22.9799 32.4804L16.9866 53.4971L18.6678 55.2307C20.7174 53.4129 22.6797 50.0981 25.9001 51.4376C27.2047 51.981 28.1653 53.4944 28.1926 54.8883C30.3268 55.16 31.9971 56.5484 32.0953 58.7955C34.2077 58.877 35.8343 60.5045 35.9298 62.5913C38.8064 62.8005 40.7113 65.5937 39.3085 68.2591C38.8637 69.1014 35.7552 71.6175 35.6869 72.0087C37.2617 75.1361 42.1605 74.4215 42.0841 70.7589C42.0541 69.3433 40.8287 68.6558 40.8751 67.8652C40.9215 67.0745 41.7593 66.5637 42.4335 67.05C43.9673 68.251 46.2297 71.6908 48.1811 71.8946C51.3824 72.2315 52.9544 69.1422 51.0658 66.6968L43.0448 58.7411C42.6081 58.07 42.9165 57.2413 43.6916 57.0239L44.4858 57.3065L54.2999 67.0582C57.7223 69.346 61.2266 65.5475 58.5329 62.3087C55.8037 59.0292 51.8464 56.073 48.9835 52.8287C48.5468 52.1603 48.8497 51.3316 49.6303 51.1115L50.4245 51.3941C53.2683 53.7036 55.8746 57.4532 58.7048 59.6296C62.1108 62.2489 65.817 58.0157 63.0305 54.9644C57.8588 50.5138 53.2055 44.2835 48.0064 40.0067C41.7539 34.8633 39.1284 46.2724 33.7847 46.8158C31.5632 47.0413 29.5272 46.3294 28.2199 44.4764C24.9913 39.8981 30.4578 34.4992 33.3371 31.2332H33.3317ZM23.7441 53.3015C23.463 53.3857 19.7376 57.1353 19.6176 57.4288C19.0062 58.9096 20.5537 60.2709 21.9974 59.6188C22.2594 59.5019 25.8919 55.8094 26.0011 55.5458C26.6097 54.0786 25.2069 52.8668 23.7441 53.2988V53.3015ZM27.8842 57.0593C26.8581 57.2875 24.5028 60.1106 23.714 60.9746C23.4821 61.2273 23.1273 61.3414 22.8953 61.5941C21.1404 63.4988 23.0863 65.5665 24.8658 64.4525C25.2397 64.2188 29.5517 59.9041 29.7073 59.6025C30.3978 58.2738 29.3634 56.7332 27.8815 57.062L27.8842 57.0593ZM31.4785 61.0018C31.3339 61.0452 30.4005 61.8468 30.1795 62.0343C28.3973 63.5423 26.8417 65.5991 25.1196 67.2049C24.077 68.8134 25.8346 70.6774 27.4885 69.5633L33.5882 63.458C34.4315 61.9935 33.0969 60.5181 31.4813 61.0018H31.4785ZM35.6214 64.7622C34.8382 64.9389 30.8836 68.8786 30.4797 69.6775C29.6964 71.2262 31.4321 72.756 32.9659 71.7941C33.318 71.574 37.3026 67.5853 37.45 67.3027C38.1405 65.9768 37.1034 64.4308 35.6242 64.7622H35.6214Z" fill="#0C4A6E"/>
<path d="M21.9508 11.5531C22.603 11.4308 24.9037 12.4823 25.0265 13.2676C25.354 15.3869 21.3585 13.6942 21.1238 12.8301C20.9765 12.2867 21.3995 11.6564 21.9508 11.5531Z" fill="#0C4A6E"/>
<path d="M67.6536 11.5585C68.2867 11.4526 68.9254 11.8737 68.9581 12.5285C69.0127 13.6018 65.0063 15.3924 65.0117 13.4062C65.0117 12.5802 66.9713 11.6699 67.6536 11.5558V11.5585Z" fill="#0C4A6E"/>
<path d="M23.5719 21.2396C24.4398 21.0983 24.8465 21.2993 25.043 22.1824C25.0457 23.1334 22.3329 24.193 21.536 23.7148C19.9394 22.7584 22.6413 21.389 23.5719 21.2368V21.2396Z" fill="#0C4A6E"/>
<path d="M65.664 21.2314C66.4173 21.0032 68.7726 21.9596 68.9281 22.7666C69.3375 24.8886 65.0063 23.3698 65.009 22.1851C65.05 21.8401 65.3202 21.3347 65.6613 21.2314H65.664Z" fill="#0C4A6E"/>
<path d="M23.9322 18.4708C23.6374 18.7643 21.132 18.7887 20.6817 18.6556C19.8575 18.4138 20.0595 16.9031 21.0092 16.7264C21.3968 16.6531 23.1325 16.6585 23.4846 16.7591C24.145 16.9493 24.3934 18.0062 23.9294 18.4708H23.9322Z" fill="#0C4A6E"/>
<path d="M66.1225 18.4708C65.6586 18.0089 65.9069 16.9493 66.5674 16.7591C66.9222 16.6585 68.6552 16.6531 69.0428 16.7264C69.9952 16.9031 70.1945 18.4165 69.3703 18.6556C68.9199 18.786 66.4173 18.7643 66.1198 18.4708H66.1225Z" fill="#0C4A6E"/>
<path d="M75.3934 29.4806C77.8933 29.1871 79.8065 31.7656 78.9359 34.0915C77.6641 37.4933 72.4896 36.7787 72.2767 33.0291C72.1757 31.2304 73.6331 29.6871 75.3934 29.4806ZM75.2024 31.6244C73.6904 32.0781 74.3208 34.7762 76.163 34.1974C77.7569 33.6975 77.2138 31.0184 75.2024 31.6244Z" fill="#0C4A6E"/>
<path d="M13.8614 29.4805C18.3236 28.9942 18.9732 35.6021 15.0595 36.2352C9.93687 37.0612 9.47564 29.9587 13.8614 29.4805ZM13.6677 31.627C12.4805 31.9775 12.606 34.3577 14.3472 34.2871C16.2822 34.2083 16.0147 30.9342 13.6677 31.627Z" fill="#0C4A6E"/>
<path d="M41.388 11.2135C43.2575 10.9934 44.0108 12.121 44.9687 12.2025C45.3481 12.2351 46.1914 11.5857 46.6499 11.439C51.153 9.99622 54.7856 15.137 52.0154 18.93C50.3807 21.1717 47.324 23.3318 45.4409 25.4647L44.3874 25.3288C42.608 23.2149 39.988 21.3401 38.2795 19.2316C35.7987 16.1722 37.4362 11.6781 41.388 11.2135ZM39.8733 14.0963C39.0655 14.9522 38.8635 16.3216 39.4421 17.3541L44.9633 22.9758C45.1816 23.0166 45.258 22.8291 45.3945 22.7258C46.1341 22.1607 50.397 17.8677 50.6781 17.2373C51.8899 14.5175 48.8305 12.1319 46.3797 13.8545C45.9212 14.1778 45.7957 14.7294 45.1188 14.7675C44.2646 14.8164 44.1527 14.1615 43.5768 13.7757C42.4879 13.0448 40.8013 13.11 39.8733 14.0936V14.0963Z" fill="#0C4A6E"/>
</g>
<defs>
<clipPath id="clip0_2_2007">
<rect width="90" height="76" fill="white"/>
</clipPath>
</defs>
</svg>
