<svg width="82" height="99" viewBox="0 0 82 99" fill="none" xmlns="http://www.w3.org/2000/svg">
<g clip-path="url(#clip0_555_1982)">
<path d="M41.0001 39.1152C40.8311 39.1152 40.6641 39.0712 40.5098 38.9832C33.1886 34.8131 22.5957 23.1957 22.5957 13.0947C22.5957 5.63017 26.8608 0 32.5144 0C36.5829 0 39.5587 3.60996 41.0001 5.82094C42.4415 3.60996 45.4174 0 49.4859 0C55.1395 0 59.4046 5.63017 59.4046 13.0947C59.4046 23.1957 48.8117 34.8131 41.4905 38.9832C41.3362 39.0712 41.1692 39.1152 41.0001 39.1152ZM32.5144 2.57051C28.1268 2.57051 24.817 7.09519 24.817 13.0922C24.817 21.4861 34.2263 32.2744 40.998 36.3858C47.7697 32.2744 57.179 21.4886 57.179 13.0922C57.179 7.09274 53.8693 2.57051 49.4816 2.57051C45.094 2.57051 41.9935 8.69228 41.9639 8.75342C41.7673 9.15697 41.3975 9.40644 40.998 9.40644C40.5986 9.40644 40.2287 9.15697 40.0321 8.75342C40.0026 8.69228 36.9485 2.57051 32.5144 2.57051Z" fill="#0C4A6E"/>
<path d="M31.0034 56.9132C30.3905 56.9132 29.8917 56.3385 29.8917 55.6267V44.3297C29.8917 42.9968 28.9533 41.9108 27.8015 41.9108C26.6496 41.9108 25.7112 42.9968 25.7112 44.3297V55.6267C25.7112 56.336 25.2145 56.9132 24.5995 56.9132C23.9845 56.9132 23.4878 56.3385 23.4878 55.6267V44.3297C23.4878 41.5782 25.4217 39.3403 27.8015 39.3403C30.1813 39.3403 32.113 41.5782 32.113 44.3297V55.6267C32.113 56.336 31.6163 56.9132 31.0013 56.9132H31.0034Z" fill="#0C4A6E"/>
<path d="M18.1974 62.3381C17.5845 62.3381 17.0857 61.7633 17.0857 61.0516V39.047C17.0857 36.2955 19.0196 34.0552 21.3973 34.0552C23.7749 34.0552 25.7109 36.2931 25.7109 39.047V55.6293C25.7109 56.3386 25.2142 56.9158 24.5992 56.9158C23.9842 56.9158 23.4875 56.3411 23.4875 55.6293V39.047C23.4875 37.714 22.5491 36.6281 21.3973 36.6281C20.2454 36.6281 19.307 37.714 19.307 39.047V61.0516C19.307 61.7609 18.8103 62.3381 18.1953 62.3381H18.1974Z" fill="#0C4A6E"/>
<path d="M11.7936 69.1662C11.1807 69.1662 10.6819 68.5915 10.6819 67.8797V45.8751C10.6819 43.1236 12.6157 40.8833 14.9934 40.8833C17.3711 40.8833 19.3071 43.1212 19.3071 45.8751V62.4575C19.3071 63.1667 18.8104 63.7439 18.1954 63.7439C17.5804 63.7439 17.0837 63.1692 17.0837 62.4575V45.8751C17.0837 44.5422 16.1453 43.4563 14.9934 43.4563C13.8416 43.4563 12.9032 44.5422 12.9032 45.8751V67.8797C12.9032 68.589 12.4065 69.1662 11.7915 69.1662H11.7936Z" fill="#0C4A6E"/>
<path d="M32.8124 98.9998H15.7733C14.4249 98.9998 13.3259 97.7281 13.3259 96.1676V89.6912C13.3259 88.0232 10.0542 84.2641 8.29573 82.2439C7.22841 81.0185 6.38512 80.05 5.93494 79.3285C2.67168 74.1068 1.21125 65.0329 0.630034 60.0876C0.401775 58.1481 1.20913 56.2844 2.68648 55.3404C4.60554 54.1126 7.05933 54.9001 8.15624 57.094C9.51522 59.8137 11.4258 63.8027 12.8081 67.354C14.0022 70.4259 15.4964 71.5412 17.0774 72.72C18.8886 74.0725 20.9408 75.6036 22.2533 79.9937C22.4541 80.6639 22.1477 81.3976 21.5664 81.63C20.9852 81.8623 20.3533 81.5077 20.1525 80.8351C19.0915 77.2838 17.5994 76.171 15.8705 74.8821C14.1713 73.6127 12.2438 72.1746 10.7791 68.4106C9.43491 64.9596 7.56445 61.0512 6.23083 58.3829C5.73627 57.3924 4.62668 57.0353 3.76014 57.5929C3.09227 58.0209 2.72875 58.8647 2.8302 59.7452C3.27615 63.5337 4.64359 72.8814 7.73565 77.8268C8.08015 78.3771 8.94457 79.3701 9.86184 80.4242C13.0828 84.1271 15.5472 87.1599 15.5472 89.6961V96.1725C15.5472 96.3168 15.6486 96.4342 15.7733 96.4342H32.8124C32.9371 96.4342 33.0386 96.3168 33.0386 96.1725V90.1804C33.0386 88.4781 33.8565 86.9348 34.6469 85.4454C35.4585 83.9143 36.2976 82.3319 36.2976 80.5807V50.1993C36.2976 48.8664 35.3592 47.7805 34.2073 47.7805C33.0555 47.7805 32.1171 48.8664 32.1171 50.1993V57.9524C32.1171 58.6617 31.6204 59.2389 31.0054 59.2389C30.3903 59.2389 29.8937 58.6642 29.8937 57.9524V50.1993C29.8937 47.4478 31.8275 45.21 34.2073 45.21C36.5871 45.21 38.521 47.4478 38.521 50.1993V80.5807C38.521 83.0583 37.4706 85.0394 36.5428 86.7905C35.8855 88.033 35.262 89.2045 35.262 90.1828V96.175C35.262 97.7354 34.163 99.0072 32.8145 99.0072L32.8124 98.9998Z" fill="#0C4A6E"/>
<path d="M57.4006 56.9132C56.7877 56.9132 56.2889 56.3385 56.2889 55.6267V44.3297C56.2889 42.9968 55.3505 41.9108 54.1987 41.9108C53.0468 41.9108 52.1084 42.9968 52.1084 44.3297V55.6267C52.1084 56.336 51.6117 56.9132 50.9967 56.9132C50.3817 56.9132 49.885 56.3385 49.885 55.6267V44.3297C49.885 41.5782 51.8189 39.3403 54.1987 39.3403C56.5785 39.3403 58.5102 41.5782 58.5102 44.3297V55.6267C58.5102 56.336 58.0136 56.9132 57.3985 56.9132H57.4006Z" fill="#0C4A6E"/>
<path d="M63.8044 62.3381C63.1915 62.3381 62.6927 61.7633 62.6927 61.0516V39.047C62.6927 37.714 61.7543 36.6281 60.6025 36.6281C59.4506 36.6281 58.5122 37.714 58.5122 39.047V55.6293C58.5122 56.3386 58.0156 56.9158 57.4005 56.9158C56.7855 56.9158 56.2888 56.3411 56.2888 55.6293V39.047C56.2888 36.2955 58.2227 34.0552 60.6025 34.0552C62.9823 34.0552 64.9162 36.2931 64.9162 39.047V61.0516C64.9162 61.7609 64.4195 62.3381 63.8044 62.3381Z" fill="#0C4A6E"/>
<path d="M70.2066 69.1662C69.5936 69.1662 69.0948 68.5915 69.0948 67.8797V45.8751C69.0948 44.5422 68.1564 43.4563 67.0046 43.4563C65.8527 43.4563 64.9143 44.5422 64.9143 45.8751V62.4575C64.9143 63.1667 64.4176 63.7439 63.8026 63.7439C63.1876 63.7439 62.6909 63.1692 62.6909 62.4575V45.8751C62.6909 43.1236 64.6248 40.8833 67.0025 40.8833C69.3802 40.8833 71.3161 43.1212 71.3161 45.8751V67.8797C71.3161 68.589 70.8195 69.1662 70.2044 69.1662H70.2066Z" fill="#0C4A6E"/>
<path d="M66.227 98.9999H49.1879C47.8395 98.9999 46.7405 97.7281 46.7405 96.1677V90.1755C46.7405 89.1997 46.1191 88.0257 45.4597 86.7832C44.534 85.0345 43.4814 83.051 43.4814 80.5734V50.192C43.4814 47.4405 45.4153 45.2026 47.793 45.2026C50.1707 45.2026 52.1067 47.4405 52.1067 50.192V57.9451C52.1067 58.6544 51.61 59.2316 50.995 59.2316C50.3799 59.2316 49.8833 58.6568 49.8833 57.9451V50.192C49.8833 48.8591 48.9449 47.7731 47.793 47.7731C46.6411 47.7731 45.7027 48.8591 45.7027 50.192V80.5734C45.7027 82.3246 46.5418 83.907 47.3534 85.438C48.1438 86.93 48.9618 88.4708 48.9618 90.1731V96.1652C48.9618 96.3095 49.0632 96.4269 49.1879 96.4269H66.227C66.3517 96.4269 66.4532 96.3095 66.4532 96.1652V89.6888C66.4532 87.1525 68.9175 84.1173 72.1406 80.4144C73.0558 79.3628 73.9202 78.3673 74.2647 77.8195C77.3589 72.8717 78.7263 63.5264 79.1701 59.7379C79.2737 58.8574 78.9102 58.0136 78.2423 57.5856C77.3758 57.0304 76.2662 57.385 75.7716 58.3756C74.438 61.0439 72.5675 64.9474 71.2234 68.4032C69.7587 72.1673 67.8312 73.6054 66.1319 74.8748C64.4031 76.1637 62.9109 77.2765 61.8499 80.8278C61.6492 81.4979 61.0172 81.855 60.436 81.6226C59.8569 81.3903 59.5483 80.659 59.7491 79.9864C61.0616 75.5963 63.1138 74.0652 64.9272 72.7127C66.5081 71.5338 68.0024 70.4186 69.1965 67.3467C70.5787 63.793 72.4893 59.8063 73.8483 57.0866C74.9452 54.8903 77.3969 54.1053 79.3181 55.333C80.7954 56.2795 81.6007 58.1432 81.3724 60.0827C80.7933 65.0256 79.3329 74.1019 76.0654 79.3261C75.6152 80.0451 74.774 81.0136 73.7067 82.239C71.9483 84.2592 68.6766 88.0183 68.6766 89.6864V96.1628C68.6766 97.7232 67.5776 98.995 66.2291 98.995L66.227 98.9999Z" fill="#0C4A6E"/>
</g>
<defs>
<clipPath id="clip0_555_1982">
<rect width="80.8163" height="99" fill="white" transform="translate(0.591797)"/>
</clipPath>
</defs>
</svg>
