<svg width="70" height="99" viewBox="0 0 70 99" fill="none" xmlns="http://www.w3.org/2000/svg">
<g clip-path="url(#clip0_555_2000)">
<path d="M24.9833 56.974C24.6723 56.974 24.3836 56.8853 24.117 56.6857L17.5649 51.8732C17.254 51.6514 17.0541 51.2966 16.9875 50.9196C16.9208 50.5425 17.0319 50.1655 17.254 49.855L22.0737 43.3127C22.5401 42.6696 23.4507 42.5365 24.0948 43.0022L30.6469 47.8147C31.291 48.2805 31.4243 49.1897 30.9579 49.8329L26.1382 56.3752C25.9161 56.6857 25.5829 56.8853 25.1832 56.9518C25.1165 56.9518 25.0277 56.9518 24.961 56.9518L24.9833 56.974ZM20.4523 50.4095L24.6723 53.5143L27.7818 49.3006L23.5618 46.1958L20.4523 50.4095Z" fill="#0C4A6E"/>
<path d="M15.6768 75.6916C14.8773 75.6916 14.2332 75.0485 14.2332 74.2501V66.111C14.2332 65.3126 14.8773 64.6694 15.6768 64.6694C16.4764 64.6694 17.1205 65.3126 17.1205 66.111V74.2501C17.1205 75.0485 16.4764 75.6916 15.6768 75.6916Z" fill="#0C4A6E"/>
<path d="M23.4288 67.5525H7.90365C7.10407 67.5525 6.45996 66.9094 6.45996 66.111C6.45996 65.3126 7.10407 64.6694 7.90365 64.6694H23.4288C24.2284 64.6694 24.8725 65.3126 24.8725 66.111C24.8725 66.9094 24.2284 67.5525 23.4288 67.5525Z" fill="#0C4A6E"/>
<path d="M68.5157 98.9998H1.48433C0.684755 98.9998 0.0406494 98.3567 0.0406494 97.5583V91.4152C0.0406494 90.6168 0.684755 89.9736 1.48433 89.9736H68.5157C69.3153 89.9736 69.9594 90.6168 69.9594 91.4152V97.5583C69.9594 98.3567 69.3153 98.9998 68.5157 98.9998ZM2.92802 96.1168H67.0498V92.8567H2.92802V96.1168Z" fill="#0C4A6E"/>
<path d="M36.3773 92.8569H20.9188C20.1192 92.8569 19.4751 92.2138 19.4751 91.4154V86.4477C19.4751 85.6493 20.1192 85.0061 20.9188 85.0061C21.7184 85.0061 22.3625 85.6493 22.3625 86.4477V89.9739H34.9336V85.361C34.9336 84.5626 35.5777 83.9194 36.3773 83.9194C37.1769 83.9194 37.821 84.5626 37.821 85.361V91.4154C37.821 92.2138 37.1769 92.8569 36.3773 92.8569Z" fill="#0C4A6E"/>
<path d="M20.7404 86.7801C13.833 86.7801 8.88 86.2701 8.43579 86.2257C7.70285 86.137 7.14758 85.5382 7.14758 84.7842V74.8487C7.14758 74.0503 7.79169 73.4072 8.59127 73.4072C32.0456 73.4072 46.2825 68.7277 50.9467 59.4797C56.5438 48.3688 46.0382 34.0644 45.9494 33.9092C45.483 33.266 45.594 32.3568 46.2381 31.891C46.8822 31.4253 47.7928 31.5584 48.2593 32.1793C48.7479 32.8225 59.9198 48.0805 53.5232 60.766C48.437 70.8568 33.8224 76.0906 10.035 76.2902V83.4535C15.3433 83.8749 35.9102 85.0281 50.9245 79.4838C58.5872 76.6672 64.2509 69.4152 65.7612 60.5443C67.7601 48.7459 62.4296 36.6592 51.1466 27.389C50.5247 26.8789 50.4359 25.9697 50.9467 25.3487C51.4576 24.7277 52.3682 24.639 52.9901 25.1491C65.0949 35.1068 70.7807 48.1693 68.6263 61.01C66.9605 70.8789 60.5639 78.9959 51.9462 82.1672C41.8626 85.893 29.6691 86.7358 20.7626 86.7358L20.7404 86.7801Z" fill="#0C4A6E"/>
<path d="M56.4553 14.238C56.1666 14.238 55.8556 14.1493 55.6113 13.9497L49.0592 9.13723C48.4151 8.6715 48.2818 7.76223 48.7482 7.11908L53.5679 0.576746C53.79 0.266262 54.1232 0.066665 54.523 0.000132697C54.9006 -0.0663996 55.2781 0.0444875 55.5891 0.266262L62.1412 5.07876C62.4521 5.30054 62.652 5.65538 62.7187 6.03239C62.7853 6.40941 62.6743 6.78642 62.4521 7.09691L57.6325 13.6392C57.3437 14.0163 56.8995 14.238 56.4775 14.238H56.4553ZM51.9244 7.67352L56.1444 10.7784L59.2538 6.56465L55.0338 3.45981L51.9244 7.67352Z" fill="#0C4A6E"/>
<path d="M33.4005 53.0707C33.1118 53.0707 32.8009 52.982 32.5565 52.7824L18.8082 42.6917C18.1641 42.226 18.0308 41.3167 18.4973 40.6735L45.1277 4.50216C45.5941 3.85902 46.5047 3.72596 47.1489 4.19168L60.8972 14.2824C61.2081 14.5042 61.408 14.859 61.4746 15.236C61.5413 15.6131 61.4302 15.9901 61.2081 16.3006L34.5555 52.4941C34.2667 52.8711 33.8225 53.0929 33.3783 53.0929L33.4005 53.0707ZM21.6734 41.228L33.0896 49.611L58.032 15.7461L46.5936 7.36305L21.6512 41.228H21.6734Z" fill="#0C4A6E"/>
</g>
<defs>
<clipPath id="clip0_555_2000">
<rect width="69.9188" height="99" fill="white" transform="translate(0.0406494)"/>
</clipPath>
</defs>
</svg>
