<svg width="81" height="99" viewBox="0 0 81 99" fill="none" xmlns="http://www.w3.org/2000/svg">
<g clip-path="url(#clip0_555_1957)">
<path d="M27.2402 87.3442C26.5555 87.3442 25.9843 86.806 25.9528 86.1164C25.9196 85.4076 26.4716 84.805 27.1826 84.7737L47.0312 83.8733C51.8418 83.6591 56.3293 81.6285 59.6691 78.1577L77.1508 59.9675C77.9351 59.1525 78.3526 58.0815 78.3282 56.9547C78.3037 55.8262 77.8408 54.7743 77.0233 53.9941C76.2041 53.2157 75.1281 52.7925 73.9996 52.8221C72.873 52.8465 71.8179 53.308 71.0319 54.123L57.3843 68.3268C56.8917 68.8406 56.076 68.858 55.5607 68.3651C55.0454 67.874 55.0297 67.0607 55.5223 66.547L69.1716 52.3414C70.4362 51.0301 72.1306 50.2882 73.9438 50.2499C75.7691 50.222 77.488 50.8803 78.805 52.1342C80.1221 53.3916 80.868 55.0826 80.9064 56.8972C80.9466 58.7119 80.2741 60.4343 79.0129 61.7456L61.5312 79.9358C57.7319 83.8855 52.6244 86.1948 47.1482 86.4403L27.3013 87.3407C27.2821 87.3407 27.2612 87.3407 27.242 87.3407L27.2402 87.3442Z" fill="white"/>
<path d="M13.1367 73.2832C12.9463 73.2832 12.7542 73.2414 12.5707 73.1526C11.9314 72.8408 11.6659 72.0711 11.9786 71.4319C17.0006 61.1918 23.4322 55.9603 31.0918 55.8837C32.6255 55.8471 35.2771 56.4671 38.0894 57.1219C40.3794 57.6531 42.7463 58.2034 44.2433 58.3253C45.0573 58.3897 45.9935 58.4124 47.0294 58.3897L52.0549 58.2817C53.8261 58.2504 55.5536 58.947 56.7939 60.2079C57.9502 61.3816 58.6088 62.9333 58.6437 64.5756C58.6647 65.523 58.455 66.4617 58.0411 67.2906C57.8856 67.6128 57.6969 67.9263 57.4856 68.2084C57.3493 68.3965 57.1816 68.5933 57 68.7831C55.9135 69.9203 54.4392 70.5664 52.8549 70.6012L39.41 70.8886C38.6973 70.9025 38.1086 70.34 38.0929 69.6312C38.0772 68.9224 38.6431 68.3338 39.3541 68.3181L52.799 68.0308C53.6933 68.0116 54.5213 67.6476 55.1344 67.0068C55.234 66.9023 55.3266 66.796 55.4087 66.6828C55.5292 66.5209 55.634 66.3485 55.7248 66.1604C55.9624 65.6867 56.0759 65.1642 56.0655 64.6313C56.0445 63.6456 55.6497 62.7157 54.9528 62.0103C54.1982 61.2406 53.1903 60.84 52.1108 60.854L47.087 60.9619C45.9674 60.9863 44.9385 60.9619 44.0372 60.8871C42.3498 60.7495 39.8868 60.1783 37.506 59.6245C34.9731 59.0358 32.3617 58.4193 31.1337 58.4542C24.5152 58.5203 18.8556 63.2677 14.2966 72.5622C14.073 73.0185 13.6136 73.2832 13.1367 73.2832Z" fill="white"/>
<path d="M21.1318 99.0002C20.2724 99.0002 19.4636 98.6658 18.8558 98.0598L1.03341 80.2911C-0.220773 79.0389 -0.220773 77.0048 1.03341 75.7527L7.60653 69.1993C8.86246 67.9489 10.9027 67.9489 12.1586 69.1993L29.981 86.968C30.5889 87.5741 30.9242 88.3804 30.9242 89.2372C30.9242 90.0941 30.5889 90.9004 29.981 91.5064L23.4079 98.0598C22.8 98.6658 21.993 99.0002 21.1318 99.0002ZM9.88083 70.8329C9.71663 70.8329 9.55418 70.8938 9.42842 71.0192L2.8553 77.5726C2.60551 77.8216 2.60726 78.2256 2.8553 78.4747L20.6777 96.2434C20.8401 96.4053 21.0305 96.4297 21.1301 96.4297C21.2296 96.4297 21.4183 96.4053 21.5807 96.2434L28.1538 89.69C28.3163 89.5281 28.3408 89.3382 28.3408 89.239C28.3408 89.1397 28.3163 88.9516 28.1538 88.7879L10.3315 71.0192C10.2075 70.8956 10.0433 70.8329 9.87908 70.8329H9.88083Z" fill="white"/>
<path d="M47.5833 39.9051C42.9788 39.9051 39.232 36.591 39.232 32.5159C39.232 31.8053 39.8102 31.2306 40.5211 31.2306C41.2321 31.2306 41.8102 31.8071 41.8102 32.5159C41.8102 35.1734 44.399 37.3346 47.5816 37.3346C50.7642 37.3346 53.3529 35.1734 53.3529 32.5159C53.3529 30.2118 49.4105 28.5696 47.5152 27.7807L46.289 27.2652C42.6574 25.7448 39.2285 24.3064 39.2285 20.3078C39.2285 16.3093 42.9753 12.9186 47.5798 12.9186C52.1843 12.9186 55.9312 16.2327 55.9312 20.3078C55.9312 21.0184 55.353 21.5931 54.6421 21.5931C53.9311 21.5931 53.3529 21.0166 53.3529 20.3078C53.3529 17.6503 50.7642 15.4891 47.5816 15.4891C44.399 15.4891 41.8102 17.6503 41.8102 20.3078C41.8102 22.5004 43.5902 23.3433 47.2899 24.8932L48.5109 25.4053C51.1048 26.485 55.9329 28.4964 55.9329 32.5124C55.9329 36.5283 52.1861 39.9016 47.5816 39.9016L47.5833 39.9051Z" fill="white"/>
<path d="M47.585 42.2126C46.8723 42.2126 46.2959 41.6362 46.2959 40.9274V38.6181C46.2959 37.9076 46.8741 37.3329 47.585 37.3329C48.296 37.3329 48.8741 37.9093 48.8741 38.6181V40.9274C48.8741 41.6379 48.296 42.2126 47.585 42.2126Z" fill="white"/>
<path d="M47.585 15.4925C46.8723 15.4925 46.2959 14.9161 46.2959 14.2073V11.898C46.2959 11.1875 46.8741 10.6128 47.585 10.6128C48.296 10.6128 48.8741 11.1892 48.8741 11.898V14.2073C48.8741 14.9178 48.296 15.4925 47.585 15.4925Z" fill="white"/>
<path d="M47.5834 52.8237C32.9769 52.8237 21.0918 40.9761 21.0918 26.4118C21.0918 11.8475 32.9769 0 47.5834 0C62.1899 0 74.075 11.8475 74.075 26.4118C74.075 40.9761 62.1917 52.8237 47.5834 52.8237ZM47.5834 2.57222C34.3987 2.57222 23.6718 13.2669 23.6718 26.4118C23.6718 39.5568 34.3987 50.2515 47.5834 50.2515C60.7681 50.2515 71.495 39.5568 71.495 26.4118C71.495 13.2669 60.7681 2.57222 47.5834 2.57222Z" fill="white"/>
</g>
<defs>
<clipPath id="clip0_555_1957">
<rect width="80.8163" height="99" fill="white" transform="translate(0.0917969)"/>
</clipPath>
</defs>
</svg>
