<svg width="97" height="97" viewBox="0 0 97 97" fill="none" xmlns="http://www.w3.org/2000/svg">
<g clip-path="url(#clip0_2_2056)">
<path d="M59.7907 11.771C71.8354 15.4738 81.5236 25.1741 85.2292 37.2104C100.932 37.122 100.909 59.8925 85.2292 59.7924C81.5177 71.8433 71.8354 81.5201 59.7907 85.2317C59.8584 100.941 37.1298 100.903 37.2094 85.2317C25.1676 81.523 15.4735 71.8257 11.7708 59.7924C-3.93832 59.8572 -3.90886 37.1309 11.7708 37.2104C15.4735 25.1623 25.1735 15.4768 37.2094 11.771C37.1239 -3.92381 59.8702 -3.92087 59.7907 11.771ZM55.6874 16.6521C59.5432 12.0862 57.2751 4.61586 51.7108 2.66284C43.0447 -0.383042 35.8897 9.30547 41.2184 16.6521C42.0019 15.1027 43.3363 13.5503 45.0035 12.9611C44.8268 12.3396 44.2494 11.8712 43.9932 11.1583C42.4379 6.85462 47.2717 2.90439 51.0892 5.42299C53.5754 7.06082 54.0997 10.4955 51.9965 12.6754V12.9611C53.6019 13.5267 55.057 15.0879 55.6874 16.6521ZM47.6664 6.98423C45.3482 7.51446 45.3364 11.5855 48.0287 11.9802C52.0878 12.5782 52.0554 5.97974 47.6664 6.98423ZM37.6159 14.1394C37.2801 13.8448 32.8763 15.8185 32.187 16.1631C25.6772 19.4152 19.6946 25.3273 16.3601 31.7961C15.9772 32.5414 13.8121 37.2428 14.1391 37.6198C25.2324 40.5302 25.2383 56.4578 14.142 59.3888C13.8681 59.701 15.5383 63.5305 15.8446 64.1697C19.2468 71.3013 25.58 77.673 32.7055 81.1018C33.3211 81.3964 37.3213 83.1284 37.6188 82.8663C40.5468 71.7697 56.4532 71.7727 59.39 82.8663C59.7023 83.1402 63.5316 81.47 64.1708 81.1636C71.3346 77.7466 77.6501 71.4575 81.1024 64.3023C81.4176 63.6513 83.1437 59.7069 82.8668 59.3888C71.7765 56.4725 71.7706 40.5361 82.8668 37.6169C83.1408 37.3046 81.4706 33.4752 81.1642 32.836C77.6825 25.5365 71.2433 19.153 63.9175 15.7095C63.3254 15.4296 59.7111 13.8566 59.393 14.1394C56.4709 25.2301 40.5674 25.2419 37.6217 14.1394H37.6159ZM47.2864 14.3692C46.8799 14.434 46.0993 14.7403 45.7193 14.9407C44.8592 15.3943 42.3701 17.7391 43.2568 18.6935C43.4689 18.9233 45.3423 19.7775 45.7399 19.9013C48.5501 20.7644 51.4486 20.2606 53.8522 18.5993C54.459 17.6478 52.2292 15.4797 51.4044 15.0172C50.1702 14.322 48.6826 14.1541 47.2893 14.3721L47.2864 14.3692ZM14.7105 50.2452C16.4603 50.802 17.5767 52.4398 18.4957 53.9333C23.7684 46.7928 16.8019 37.0749 8.30966 39.8674C2.46845 41.788 0.164959 49.0345 3.93244 53.9362C4.71598 52.3868 6.05035 50.8344 7.71759 50.2452C7.45837 49.5353 6.85746 48.9992 6.60708 48.1538C5.31983 43.8059 10.3304 40.1384 14.0272 42.8691C16.3041 44.5511 16.7342 47.8946 14.7105 49.9595V50.2452ZM92.9733 53.9392C96.9381 49.2201 94.4874 41.7174 88.6903 39.8674C80.1421 37.1397 73.2581 46.7369 78.5043 53.9362C79.3939 52.428 80.5574 50.8108 82.2895 50.2452C82.1451 49.6914 81.6944 49.3291 81.4176 48.6928C79.5323 44.3273 84.4545 40.1237 88.3752 42.7071C90.8377 44.3302 91.421 47.8091 89.2824 49.9595V50.2452C90.8436 50.8079 92.4195 52.3897 92.9733 53.9362V53.9392ZM10.3804 44.2713C8.02393 44.8104 8.00037 49.0728 10.9254 49.282C14.905 49.5677 14.5868 43.3051 10.3804 44.2713ZM84.9523 44.2713C82.5222 44.828 82.6341 49.3586 85.8831 49.2938C89.5358 49.2231 89.0232 43.3375 84.9523 44.2713ZM10.0005 51.6533C8.49818 51.889 6.07981 53.7006 5.81176 55.2471C5.64974 56.1897 7.66751 56.9379 8.45694 57.1824C11.2907 58.0603 14.145 57.5448 16.5663 55.8804C16.905 55.3473 16.1745 54.3192 15.8446 53.8714C14.4484 51.9656 12.301 51.291 10.0005 51.6504V51.6533ZM84.5694 51.6533C83.1172 51.8801 80.1981 54.0393 80.3365 55.5859C80.3895 56.1573 82.5693 57.0587 83.1732 57.2296C85.9627 58.0161 88.7876 57.5595 91.1293 55.8804C91.7273 54.9172 89.5181 52.7697 88.6845 52.3014C87.4502 51.6062 85.9627 51.4383 84.5694 51.6562V51.6533ZM55.6874 91.2233C59.6434 86.5425 57.1514 78.972 51.4044 77.1545C42.8414 74.4444 35.9575 84.0505 41.2184 91.2233C42.108 89.7151 43.2715 88.0979 45.0035 87.5323C44.8268 86.9108 44.2494 86.4424 43.9932 85.7295C42.4644 81.5024 47.039 77.6052 50.9685 79.9205C53.5194 81.4229 54.1674 85.1227 51.9994 87.2466V87.5323C53.6225 88.0773 55.001 89.6768 55.6903 91.2233H55.6874ZM47.8667 81.5613C44.7178 82.1269 45.6575 87.6619 49.4809 86.4777C51.9287 85.7207 51.537 80.9015 47.8667 81.5613ZM47.2864 88.9404C45.8342 89.1672 42.9151 91.3264 43.0535 92.8729C43.0977 93.3649 44.9063 94.2044 45.4365 94.387C48.3144 95.3739 51.3838 94.929 53.8464 93.1675C54.1851 92.6225 53.4575 91.6122 53.1306 91.1644C51.7343 89.2585 49.5869 88.5839 47.2864 88.9433V88.9404Z" fill="#075985"/>
<path d="M53.1864 30.9979L57.5312 32.7035C58.7095 32.2558 60.4739 29.9669 61.7523 30.288C62.3473 30.4353 66.5655 34.6565 66.7157 35.2516C67.0633 36.6478 64.1736 38.813 64.3209 39.5847L65.997 43.8207C67.1753 43.9768 68.5303 44.0298 69.6732 44.3215C70.6688 44.5748 70.7454 44.6013 70.8396 45.6795C70.9457 46.8489 71.0105 50.8492 70.7866 51.8596C70.7483 52.0334 70.6658 52.2691 70.5392 52.3898C70.009 52.8994 66.8807 53.0114 65.994 53.1852L64.2944 57.536C64.7156 58.6642 67.0722 60.5554 66.7187 61.7661C66.483 62.5644 62.5624 65.6604 61.8937 66.6619C60.6536 67.3748 58.2146 64.1728 57.4163 64.3259L53.1864 66.0079C53.0715 66.1493 52.8359 68.9772 52.718 69.5193C52.4824 70.5886 52.4883 70.7417 51.3248 70.8448C50.1612 70.9479 46.1551 71.0157 45.1448 70.7918C44.971 70.7535 44.7354 70.671 44.6146 70.5444C44.1285 70.0407 44.0078 66.8711 43.8193 65.9991L39.4685 64.2994C38.3374 64.7207 36.4522 67.0773 35.2445 66.7208C34.9912 66.6472 32.6022 64.3907 32.2753 64.052C31.8482 63.6101 30.3046 62.0283 30.2457 61.5952C30.0719 60.3463 32.8173 58.1399 32.6788 57.4211L30.9969 53.1911C30.8555 53.0762 28.0277 52.8405 27.4857 52.7227C26.4164 52.487 26.2632 52.4929 26.1601 51.3294C26.057 50.1658 25.9893 46.1596 26.2131 45.1492C26.2514 44.9754 26.3339 44.7398 26.4606 44.619C27.0114 44.0917 30.0955 44.0858 30.9998 43.8178L32.7053 39.4728C32.0249 37.779 29.3149 36.4122 30.7318 34.5181C31.0852 34.0468 34.62 30.5443 34.9617 30.397C36.5524 29.7048 38.1577 32.353 39.5864 32.6829L43.8222 31.0068C43.9842 30.1761 44.158 26.5941 44.8119 26.2671C45.1507 26.0962 50.7916 26.0844 51.5192 26.1699C51.7754 26.1993 52.0671 26.2288 52.2791 26.379C52.9183 26.8356 52.936 30.0936 53.1923 31.0009L53.1864 30.9979ZM50.6355 28.3055H46.3672C46.1787 29.2128 46.1257 32.188 45.5395 32.7212C45.3215 32.9185 43.2507 33.4164 42.6822 33.652C41.4834 34.1499 39.8397 35.4401 38.6467 34.9511C38.1342 34.742 36.0074 32.7094 35.6834 32.8537L32.8055 35.7789L35.215 39.2754C34.7761 40.5244 34.0957 41.5672 33.5979 42.8221C33.3298 43.4996 33.0853 45.0226 32.7849 45.4556C32.3136 46.1301 29.2148 46.1861 28.3075 46.3688V50.6401C29.1941 50.7579 32.2134 50.917 32.723 51.4649C33.0117 51.7801 33.3917 53.6889 33.6509 54.3252C34.1458 55.5359 35.4654 57.1148 34.9558 58.3579C34.7467 58.8704 32.7142 60.9973 32.8585 61.3213L35.7835 64.1993C36.8175 63.6602 38.3138 61.8368 39.4715 61.8898C40.2344 61.9252 41.8545 63.0121 42.6822 63.3568C43.398 63.6543 45.0005 63.9018 45.457 64.2228C46.1316 64.6942 46.1876 67.7931 46.3702 68.7003H50.6384C50.8299 67.7813 50.8741 64.8326 51.4661 64.2847C51.7813 63.996 53.6901 63.616 54.3264 63.3568C55.537 62.8619 57.1159 61.5422 58.3589 62.0518C58.8715 62.261 60.9982 64.2935 61.3223 64.1492L64.2002 61.2241C63.6611 60.1901 61.8377 58.6937 61.8908 57.536C61.9232 56.8408 63.072 55.0233 63.4107 54.1867C63.6876 53.5033 63.9085 51.9951 64.2208 51.5503C64.6921 50.8757 67.7909 50.8198 68.6982 50.6371V46.3688C67.7909 46.1802 64.8158 46.1272 64.2826 45.541C64.1412 45.3849 63.1898 42.2241 62.91 41.5731C62.4681 40.5392 61.5137 39.9588 62.0498 38.648C62.259 38.1354 64.2915 36.0086 64.1471 35.6846L61.2221 32.8066C60.2707 33.2927 58.7242 35.0778 57.7197 35.1161C57.0422 35.1426 55.0569 33.9496 54.1791 33.599C53.531 33.3368 51.9345 33.0393 51.5427 32.7889C50.8947 32.3736 50.8004 29.1775 50.6325 28.3085L50.6355 28.3055Z" fill="#075985"/>
<path d="M57.3664 57.3652C45.7135 69.0185 28.0426 51.3264 39.5689 39.6643C51.1511 27.9461 69.0872 45.6441 57.3664 57.3652ZM47.2923 38.2621C34.2314 39.735 35.8839 59.76 49.372 58.7909C62.8041 57.8247 61.2164 36.692 47.2923 38.2621Z" fill="#075985"/>
<path d="M51.9964 45.0078C53.1482 45.0667 54.8125 44.6337 55.4693 45.9063C55.7845 46.519 55.8022 49.7446 55.6785 50.5311C55.3986 52.3103 53.3396 52.0275 51.9994 51.9981C51.967 53.1734 52.347 54.9909 50.9802 55.5418C50.3439 55.7981 46.6707 55.801 46.0315 55.5418C44.6647 54.9909 45.0418 53.1734 45.0123 51.9981C43.837 51.9657 42.0195 52.3457 41.4687 50.9788C41.2095 50.3396 41.2124 46.6663 41.4687 46.03C42.0195 44.6632 43.837 45.0402 45.0123 45.0108C45.0447 43.8354 44.6647 42.0179 46.0315 41.4671C46.7178 41.1902 50.447 41.2019 51.1039 41.5378C52.3764 42.1947 51.9405 43.859 52.0023 45.0108L51.9964 45.0078ZM49.6664 43.4525H47.3364V46.2686C47.3364 46.4984 46.4969 47.3379 46.2672 47.3379H43.4511V49.668H46.2672C46.4969 49.668 47.3364 50.5075 47.3364 50.7373V53.5534H49.6664V50.7373C49.6664 50.5075 50.5059 49.668 50.7357 49.668H53.5517V47.3379H50.7357C50.5059 47.3379 49.6664 46.4984 49.6664 46.2686V43.4525Z" fill="#075985"/>
</g>
<defs>
<clipPath id="clip0_2_2056">
<rect width="97" height="97" fill="white"/>
</clipPath>
</defs>
</svg>
